<?xml version="1.0" standalone="no"?> <!DOCTYPE svg PUBLIC "-//W3C//DTD SVG 1.0//EN" "http://www.w3.org/TR/2001/REC-SVG-20010904/DTD/svg10.dtd" > <svg xmlns="http://www.w3.org/2000/svg" width="100%" height="100%">
<defs >
<font id="archer-bold-pro" horiz-adv-x="443" ><font-face
    font-family="Archer Bold"
    units-per-em="1000"
    panose-1="0 0 0 0 0 0 0 0 0 0"
    ascent="800"
    descent="-200"
    alphabetic="0" />
<missing-glyph horiz-adv-x="500" d="M0 -200V800H500V-200H0ZM71 750L250 360L429 750H71ZM50 -76L222 300L50 676V-76ZM450 676L278 300L450 -76V676ZM250 240L71 -150H429L250 240Z" />
<glyph unicode=" " glyph-name="space" horiz-adv-x="220" />
<glyph unicode="!" glyph-name="exclam" horiz-adv-x="278" d="M109 199L70 657H208L169 199H109ZM170 -8T139 -8T87 13T65 66T86 119T139 141T191 119T213 66T192 14Z" />
<glyph unicode="&quot;" glyph-name="quotedbl" horiz-adv-x="424" d="M295 374L252 576Q243 618 263 644T319 670T374 644T386 576L342 374H295ZM80 374L37 576Q28 618 48 644T104 670T159 644T171 576L127 374H80Z" />
<glyph unicode="#" glyph-name="numbersign" horiz-adv-x="580" d="M65 323V411H159L177 525H277L259 411H364L382 525H482L464 411H547V323H451L434 213H515V125H420L401 0H301L320 125H215L196 0H96L115 125H33V213H129L146 323H65ZM242 327L224 209H336L355 327H242Z" />
<glyph unicode="$" glyph-name="dollar" horiz-adv-x="532" d="M336 584L330 519Q392 510 435 483T479 406Q479 377 463 360T420 342Q391 342 374 359T357 402Q357 420 361 429Q346 435 315 440L304 311Q341 303 368 294T426 268T472 224T489 160Q489 84 429 43T276
0L267 -107L187 -100L196 6Q130 17 84 46T38 127Q38 155 55 173T100 192T145 175T164 132Q164 121 160 103Q172 95 211 88L223 222Q148 240 103 273T58 369T110 475T250 523L256 591L336 584ZM382 149Q382 170 360 183T290 208L279 84Q324 86 353 102T382 149ZM165
380Q165 358 181 347T237 326L247 442Q210 437 188 421T165 380Z" />
<glyph unicode="%" glyph-name="percent" horiz-adv-x="701" d="M237 273T182 273T88 311T48 403T87 495T182 533T276 495T316 403T277 311ZM158 341T182 341T221 358T236 401Q236 428 221 445T182 463T143 446T128 401Q128 375 143 358ZM130 -15L88 26L334 278Q457
407 571 540L613 499L366 248Q262 139 130 -15ZM464 252T519 252T613 214T653 122T614 30T519 -8T425 30T385 122T424 214ZM543 182T519 182T480 165T465 120Q465 94 480 77T519 60T558 77T573 120Q573 147 558 164Z" />
<glyph unicode="&amp;" glyph-name="ampersand" horiz-adv-x="672" d="M645 273H588Q564 192 531 140L625 60L563 -12L469 69Q382 -10 265 -10Q153 -10 92 38T30 167Q30 224 65 270T160 346Q95 420 95 491Q95 552 144 600T275 648T406 607T456 497Q456 390 318
326L347 300L462 196Q484 231 498 275H446V363H645V273ZM265 82Q338 82 396 128L282 233Q242 268 220 290Q143 247 143 176Q143 139 176 111T265 82ZM206 489Q206 440 258 380Q345 422 345 497Q345 525 326 544T275 563Q245 563 226 540T206 489Z" />
<glyph unicode="&apos;" glyph-name="quotesingle" horiz-adv-x="209" d="M80 374L37 576Q28 618 48 644T104 670T159 644T171 576L127 374H80Z" />
<glyph unicode="(" glyph-name="parenleft" horiz-adv-x="440" d="M385 -227Q347 -208 309 -181T226 -109T149 -12T93 111T71 261T93 410T148 534T226 630T308 702T385 749L437 672Q397 646 367 623T300 562T240 483T200 385T184 261T200 138T239 40T299 -39T366
-101T437 -150L385 -227Z" />
<glyph unicode=")" glyph-name="parenright" horiz-adv-x="440" d="M55 -227L3 -150Q43 -124 73 -101T140 -40T200 39T240 137T256 261T240 384T201 482T141 561T74 623T3 672L55 749Q93 730 131 703T214 631T291 534T347 411T369 261T347 112T292 -12T214 -108T132
-180T55 -227Z" />
<glyph unicode="*" glyph-name="asterisk" horiz-adv-x="460" d="M362 498L251 492L337 424Q363 404 367 379T347 336Q322 320 301 331T267 373L230 472L193 373Q181 342 160 331T113 336Q89 354 93 379T123 424L209 492L98 498Q64 500 47 518T39 564Q47 589 72
593T124 580L216 520L187 627Q178 659 189 681T230 703T271 681T273 627L244 520L336 580Q362 598 387 594T421 564Q430 536 413 518T362 498Z" />
<glyph unicode="+" glyph-name="plus" horiz-adv-x="464" d="M186 103V237H52V329H186V463H278V329H412V237H278V103H186Z" />
<glyph unicode="," glyph-name="comma" horiz-adv-x="256" d="M37 -173L5 -132Q103 -54 107 2Q79 10 62 31T45 81Q45 111 69 134T127 157Q164 157 188 131T213 58Q213 4 171 -58T37 -173Z" />
<glyph unicode="-" glyph-name="hyphen" horiz-adv-x="374" d="M42 227V339H332V227H42Z" />
<glyph unicode="." glyph-name="period" horiz-adv-x="256" d="M162 -8T128 -8T70 16T46 74T70 132T128 157T186 133T210 74T186 16Z" />
<glyph unicode="/" glyph-name="slash" horiz-adv-x="510" d="M95 -213L6 -173L415 747L504 707L95 -213Z" />
<glyph unicode="0" glyph-name="zero" horiz-adv-x="582" d="M399 -8T291 -8T112 68T41 262T112 456T291 533T470 456T541 262T470 69ZM230 83T291 83T390 133T429 262T391 391T291 442T192 391T153 262T191 134Z" />
<glyph unicode="1" glyph-name="one" horiz-adv-x="437" d="M57 0V90H177V413L76 389L51 479L233 525H286V90H404V0H57Z" />
<glyph unicode="2" glyph-name="two" horiz-adv-x="530" d="M257 442Q195 442 167 419Q179 400 179 382Q179 355 160 336T113 316Q85 316 65 338T45 395Q45 423 68 452Q95 487 146 510T261 533Q355 533 411 487T468 380Q468 349 457 323T421 274T373 235T308 196Q201
136 169 87H395V171H485V0H48L29 54Q79 169 242 266Q302 301 329 324T356 377Q356 405 328 423T257 442Z" />
<glyph unicode="3" glyph-name="three" horiz-adv-x="503" d="M18 -9T18 23T37 77T86 99Q113 99 132 80T152 33Q152 12 138 -7Q175 -37 244 -37Q296 -37 329 -9T362 64Q362 128 297 156Q258 173 193 173H163V259H196Q260 259 304 281Q358 310 358 362Q358 401
327 422T249 443Q191 443 165 423Q179 404 179 383Q179 356 160 337T113 317Q85 317 65 339T45 396Q45 425 65 454Q119 533 253 533Q347 533 408 486T470 366Q470 288 391 243Q361 226 329 220Q359 212 386 197Q474 148 474 57Q474 -26 409 -76T243 -127Q175 -127
121 -103T39 -40Q18 -9 18 23Z" />
<glyph unicode="4" glyph-name="four" horiz-adv-x="565" d="M338 -120V46H50L25 100L360 544L439 481L178 136H338V249L444 291V136H542V46H444V-120H338Z" />
<glyph unicode="5" glyph-name="five" horiz-adv-x="516" d="M36 -2Q36 31 56 52T106 74Q133 74 152 55T172 8Q172 -6 163 -24Q192 -34 237 -34Q297 -34 331 1T365 89Q365 139 332 169T232 200Q164 200 110 171L59 199L99 525H441V423H181L164 283Q202 293 249
293Q348 293 411 239T475 89Q475 -6 410 -67T244 -128Q126 -128 69 -73Q36 -42 36 -2Z" />
<glyph unicode="6" glyph-name="six" horiz-adv-x="565" d="M308 557Q252 557 202 496T149 329Q170 361 212 382T303 404Q400 404 464 347T528 203Q528 113 460 53T288 -8Q185 -8 118 59Q44 133 44 285Q44 455 122 551T318 648Q418 648 470 596Q499 567 499 530Q499
500 479 479T432 457Q401 457 381 477T360 524Q360 538 364 547Q339 557 308 557ZM288 82Q343 82 380 117T417 203Q417 250 383 282T293 314Q237 314 198 281T159 198Q159 151 196 117Q234 82 288 82Z" />
<glyph unicode="7" glyph-name="seven" horiz-adv-x="531" d="M197 -122L105 -74L369 436H130V324H34V525H469L497 463L197 -122Z" />
<glyph unicode="8" glyph-name="eight" horiz-adv-x="541" d="M375 -8T270 -8T102 45T38 175Q38 225 67 264T150 326Q105 349 79 386T52 467Q52 544 114 596T270 648T426 596T488 467Q488 423 462 386T390 326Q443 304 473 265T503 175Q503 98 439 45ZM226 365T270
365T345 392T376 460Q376 505 347 531T270 557T193 531T164 460Q164 420 195 393ZM215 83T270 83T358 112T391 184T358 256T270 286T182 257T149 184T182 112Z" />
<glyph unicode="9" glyph-name="nine" horiz-adv-x="565" d="M247 -127Q144 -127 93 -73Q66 -44 66 -9Q66 21 86 42T133 64Q164 64 184 44T205 -3Q205 -12 201 -26Q224 -36 257 -36Q314 -36 363 25T416 193Q395 162 353 141T262 119Q166 119 102 177T37 321Q37
411 105 472T277 533Q380 533 442 471Q521 392 521 238Q521 68 442 -29T247 -127ZM369 408Q331 443 277 443Q222 443 185 407T148 321Q148 274 182 242T272 209Q328 209 367 243T406 326Q406 374 369 408Z" />
<glyph unicode=":" glyph-name="colon" horiz-adv-x="276" d="M171 256T138 256T82 279T58 336T81 392T138 416T194 393T218 336T195 280ZM171 -8T138 -8T82 15T58 72T81 128T138 152T194 129T218 72T195 16Z" />
<glyph unicode=";" glyph-name="semicolon" horiz-adv-x="276" d="M171 256T138 256T82 279T58 336T81 392T138 416T194 393T218 336T195 280ZM50 -168L19 -128Q114 -52 118 2Q91 10 75 30T58 78Q58 108 81 130T137 152Q173 152 197 127T221 56Q221 5 180 -56T50 -168Z" />
<glyph unicode="&lt;" glyph-name="less" horiz-adv-x="424" d="M309 68L51 254V314L309 500L360 432L155 284L360 136L309 68Z" />
<glyph unicode="=" glyph-name="equal" horiz-adv-x="464" d="M52 331V423H412V331H52ZM52 143V235H412V143H52Z" />
<glyph unicode="&gt;" glyph-name="greater" horiz-adv-x="424" d="M115 68L64 136L269 284L64 432L115 500L373 314V254L115 68Z" />
<glyph unicode="?" glyph-name="question" horiz-adv-x="489" d="M23 517Q23 558 50 592Q77 627 125 648T232 670Q331 670 393 617T455 484Q455 411 409 360T269 291L260 199H185L165 361Q254 373 295 405T336 482Q336 521 307 547T227 574Q167 574 140 544Q157
530 157 502Q157 475 142 457T98 439Q68 439 46 460T23 517ZM254 -8T223 -8T171 13T149 66T170 119T223 141T275 119T297 66T276 14Z" />
<glyph unicode="@" glyph-name="at" horiz-adv-x="813" d="M352 -179Q216 -179 128 -88T39 153Q39 345 162 482T461 620Q601 620 688 537T775 324Q775 201 716 116T565 30Q514 30 482 53T445 115Q393 30 317 30Q270 30 240 68T210 165Q210 259 262 330T388 401Q451
401 486 326L512 393H614L555 163Q537 96 593 96Q642 96 680 162T718 320Q718 426 648 497T462 569Q360 569 276 512T144 359T96 151Q96 26 168 -51T354 -128Q435 -128 512 -87L535 -131Q450 -179 352 -179ZM376 123Q411 123 441 156T471 242Q471 302 415 302Q380
302 353 266T325 184Q325 159 338 141T376 123Z" />
<glyph unicode="A" glyph-name="A" horiz-adv-x="696" d="M13 0V101H70L234 558H162V658H534V558H462L626 101H683V0H430V100H506L469 208H223L186 100H266V0H13ZM254 302H438L346 561L254 302Z" />
<glyph unicode="B" glyph-name="B" horiz-adv-x="596" d="M37 0V101H112V557H37V658H300Q417 658 478 610T540 485Q540 430 510 393T428 338Q559 300 559 184Q559 100 494 50T311 0H37ZM224 99H313Q373 99 408 123T443 194T409 264T310 289H224V99ZM224 379H301Q360
379 392 404T424 472Q424 514 391 536T298 559H224V379Z" />
<glyph unicode="C" glyph-name="C" horiz-adv-x="702" d="M394 -12Q241 -12 144 82T46 329Q46 476 146 573T392 670Q502 670 574 622T647 511Q647 475 627 453T575 430Q541 430 520 449T499 501Q499 521 506 535Q468 565 389 565Q292 565 228 499T163 330Q163
229 227 161T394 93Q503 93 583 180L658 102Q609 48 541 18T394 -12Z" />
<glyph unicode="D" glyph-name="D" horiz-adv-x="711" d="M37 0V101H112V557H37V658H286Q464 658 564 572T665 335Q665 181 564 91T274 0H37ZM225 101H290Q415 101 481 163T548 334Q548 441 477 499T282 557H225V101Z" />
<glyph unicode="E" glyph-name="E" horiz-adv-x="577" d="M37 0V101H112V557H37V658H528V470H420V558H225V382H424V286H225V100H421V188H529V0H37Z" />
<glyph unicode="F" glyph-name="F" horiz-adv-x="559" d="M37 0V101H112V557H37V658H522V470H414V558H225V370H419V273H225V101H312V0H37Z" />
<glyph unicode="G" glyph-name="G" horiz-adv-x="726" d="M362 -12Q234 -12 140 81T46 327Q46 477 146 573T392 670Q502 670 574 622T647 511Q647 475 627 453T575 430Q541 430 520 449T499 501Q499 521 506 535Q468 565 389 565Q292 565 228 499T163 328T227
157T379 90Q473 90 538 132V245H374V341H649V0H541V49Q463 -12 362 -12Z" />
<glyph unicode="H" glyph-name="H" horiz-adv-x="754" d="M37 0V101H112V557H37V658H307V557H225V383H529V557H447V658H717V557H642V101H717V0H447V101H529V284H225V101H307V0H37Z" />
<glyph unicode="I" glyph-name="I" horiz-adv-x="347" d="M37 0V101H117V557H37V658H310V557H230V101H310V0H37Z" />
<glyph unicode="J" glyph-name="J" horiz-adv-x="540" d="M233 -12Q147 -12 87 36T27 154Q27 193 48 216T102 240Q130 240 149 221T169 173Q169 142 146 123Q167 90 233 90Q277 90 300 113Q331 144 331 217V557H232V658H513V557H441V217Q441 102 382 43Q327 -12 233 -12Z" />
<glyph unicode="K" glyph-name="K" horiz-adv-x="681" d="M37 0V101H112V557H37V658H307V559H225V336L446 559H371V658H661V557H590L406 376L574 101H661V0H503L320 300L225 207V101H307V0H37Z" />
<glyph unicode="L" glyph-name="L" horiz-adv-x="548" d="M37 0V101H112V557H37V658H312V557H225V100H406V193H515V0H37Z" />
<glyph unicode="M" glyph-name="M" horiz-adv-x="862" d="M32 0V101H110L131 557H49V658H229L431 292L633 658H812V557H730L751 101H829V0H559V101H638L625 440L437 110H422L234 440L221 101H300V0H32Z" />
<glyph unicode="N" glyph-name="N" horiz-adv-x="743" d="M581 -3L222 454V101H304V0H37V101H112V557H37V658H208L532 245V557H450V658H714V557H642V-1L581 -3Z" />
<glyph unicode="O" glyph-name="O" horiz-adv-x="767" d="M381 -12Q234 -12 140 85T46 329T141 572T386 670Q533 670 627 573T721 329T626 86T381 -12ZM288 93T384 93T542 159T604 329T542 498T384 565Q288 565 226 499T163 329T225 160Z" />
<glyph unicode="P" glyph-name="P" horiz-adv-x="581" d="M37 0V101H112V557H37V658H302Q410 658 480 600T551 443Q551 333 480 276T289 218Q239 218 225 219V101H307V0H37ZM299 317Q362 317 398 350T434 443Q434 494 396 525T296 557H225V319Q249 317 299 317Z" />
<glyph unicode="Q" glyph-name="Q" horiz-adv-x="767" d="M632 -138Q601 -138 566 -126T514 -106T457 -71T415 -44Q376 -18 331 -10Q217 9 136 90Q46 180 46 329Q46 475 141 572T386 670Q533 670 627 573T721 329Q721 207 659 126T503 16Q522 10 539 0Q588 -29
622 -29Q667 -29 714 6L773 -84Q721 -138 632 -138ZM384 93Q480 93 542 159T604 329T542 498T384 565Q288 565 226 499T163 329Q163 224 229 156Q290 93 384 93Z" />
<glyph unicode="R" glyph-name="R" horiz-adv-x="620" d="M37 0V101H112V557H37V658H292Q410 658 480 607T551 459Q551 397 517 350T427 280L528 101H603V0H451L319 250Q291 248 279 248Q239 248 225 249V101H307V0H37ZM289 344Q354 344 394 374T434 455T395 531T286
557H225V346Q249 344 289 344Z" />
<glyph unicode="S" glyph-name="S" horiz-adv-x="555" d="M275 -12Q179 -12 110 34T40 141Q40 176 59 197T109 219Q141 219 161 199T181 154Q181 132 172 114Q212 86 276 86Q331 86 362 109T394 175Q394 212 363 235T273 278Q164 317 115 358T65 483Q65 563 125
616T283 670Q375 670 438 629T501 528Q501 494 482 474T434 454Q401 454 382 474T362 521Q362 538 369 552Q336 572 282 572Q234 572 207 550T179 491T209 433T300 389Q352 371 383 356T446 318T492 261T507 184Q507 92 443 40T275 -12Z" />
<glyph unicode="T" glyph-name="T" horiz-adv-x="617" d="M170 0V101H252V560H130V456H23V658H594V456H487V560H365V101H447V0H170Z" />
<glyph unicode="U" glyph-name="U" horiz-adv-x="692" d="M347 -12Q233 -12 166 52T99 240V557H27V658H291V557H212V246Q212 171 247 131T347 91Q412 91 447 129T483 242V557H404V658H665V557H593V242Q593 117 527 53T347 -12Z" />
<glyph unicode="V" glyph-name="V" horiz-adv-x="688" d="M312 -7L73 557H13V658H273V557H204L346 196L488 557H415V658H675V557H615L376 -7H312Z" />
<glyph unicode="W" glyph-name="W" horiz-adv-x="1022" d="M273 -7L93 557H23V658H303V557H216L323 211L486 594H546L709 211L809 557H719V658H999V557H929L752 -7H689L513 398L336 -7H273Z" />
<glyph unicode="X" glyph-name="X" horiz-adv-x="707" d="M24 0V101H95L290 339L112 557H37V658H312V559H243L359 401L476 559H399V658H674V557H599L422 341L612 101H683V0H413V99H481L353 278L219 99H294V0H24Z" />
<glyph unicode="Y" glyph-name="Y" horiz-adv-x="645" d="M183 0V101H266V251L79 557H13V658H262V557H204L325 346L445 557H383V658H632V557H566L379 251V101H462V0H183Z" />
<glyph unicode="Z" glyph-name="Z" horiz-adv-x="625" d="M44 0V64L416 563H160V453H64V658H575V594L203 95H486V205H581V0H44Z" />
<glyph unicode="[" glyph-name="bracketleft" horiz-adv-x="381" d="M91 -200V732H351V638H196V-105H351V-200H91Z" />
<glyph unicode="\" glyph-name="backslash" horiz-adv-x="510" d="M415 -213L6 707L95 747L504 -173L415 -213Z" />
<glyph unicode="]" glyph-name="bracketright" horiz-adv-x="381" d="M30 -200V-105H185V638H30V732H290V-200H30Z" />
<glyph unicode="^" glyph-name="asciicircum" horiz-adv-x="460" d="M102 322L53 378L230 554L407 378L358 322L230 406L102 322Z" />
<glyph unicode="_" glyph-name="underscore" horiz-adv-x="572" d="M-8 -167V-65H580V-167H-8Z" />
<glyph unicode="`" glyph-name="grave" horiz-adv-x="234" d="M200 491L51 599Q20 623 20 654Q20 676 34 690T69 705Q100 705 124 674L234 524L200 491Z" />
<glyph unicode="a" glyph-name="a" horiz-adv-x="509" d="M177 -8Q117 -8 76 24T35 115Q35 176 83 211T211 247Q274 247 322 235V270Q322 308 305 330Q280 362 219 362Q194 362 176 355Q180 343 180 333Q180 308 163 292T121 276T80 292T63 335Q63 380 108 413T237
446Q346 446 394 387Q428 346 428 277V90H493V0H324V48Q259 -8 177 -8ZM212 71Q268 71 322 110V179Q280 189 232 189Q192 189 170 172T147 125Q147 99 164 85T212 71Z" />
<glyph unicode="b" glyph-name="b" horiz-adv-x="548" d="M304 -8Q233 -8 171 42L147 -2H73V640H7V732H182V390Q240 446 311 446Q399 446 456 383T514 221Q514 125 453 59T304 -8ZM286 86Q334 86 368 122T402 220Q402 281 369 316T286 352Q233 352 182 308V120Q231
86 286 86Z" />
<glyph unicode="c" glyph-name="c" horiz-adv-x="499" d="M276 -8Q171 -8 103 55T34 223Q34 311 97 378T256 446Q342 446 398 400T455 299Q455 265 435 245T385 225Q358 225 339 244T319 291Q319 312 333 328Q311 358 255 358Q212 358 178 323T143 221Q143 160
184 122T285 84Q356 84 441 130L432 32Q362 -8 276 -8Z" />
<glyph unicode="d" glyph-name="d" horiz-adv-x="561" d="M237 -8Q149 -8 92 55T34 217Q34 313 95 379T244 446Q316 446 366 404V640H300V732H475V90H540V0H366V48Q308 -8 237 -8ZM262 86Q315 86 366 130V318Q317 352 262 352Q214 352 180 316T146 218Q146 157
179 122T262 86Z" />
<glyph unicode="e" glyph-name="e" horiz-adv-x="500" d="M464 182H148Q170 84 292 84Q370 84 451 130L442 32Q374 -8 276 -8Q168 -8 101 54T34 218Q34 314 95 380T256 446Q357 446 413 387T469 236Q469 207 464 182ZM255 358Q216 358 186 334T147 258H360Q358
304 330 331T255 358Z" />
<glyph unicode="f" glyph-name="f" horiz-adv-x="342" d="M319 604Q277 604 256 645Q240 638 233 627Q213 598 213 539V438H327V346H213V90H298V0H39V90H105V346H30V438H105V523Q105 584 117 624T161 694Q209 740 281 740Q324 740 351 720T378 666Q378 638 361
621T319 604Z" />
<glyph unicode="g" glyph-name="g" horiz-adv-x="557" d="M469 346V-1Q469 -83 428 -133Q373 -200 264 -200Q209 -200 163 -185T92 -145T68 -88Q68 -64 84 -46T127 -27T170 -43T188 -84Q188 -93 186 -101Q219 -112 251 -112Q312 -112 340 -74Q360 -46 360 2V65Q304
9 234 9Q149 9 92 68T34 224Q34 317 93 381T239 446Q309 446 364 399V438H534V346H469ZM262 352Q210 352 178 319T146 225Q146 166 178 134T262 101T360 144V318Q316 352 262 352Z" />
<glyph unicode="h" glyph-name="h" horiz-adv-x="566" d="M91 640H26V732H200V372Q278 446 349 446T456 399Q485 361 485 300V90H550V0H316V90H376V273Q376 307 362 326Q346 347 313 347Q262 347 200 296V90H260V0H26V90H91V640Z" />
<glyph unicode="i" glyph-name="i" horiz-adv-x="305" d="M142 505Q113 505 92 526T70 577T92 628T144 649Q173 649 194 628T216 577T194 526T142 505ZM32 0V90H99V346H32V438H208V90H273V0H32Z" />
<glyph unicode="j" glyph-name="j" horiz-adv-x="296" d="M-49 -121Q-49 -96 -32 -78T11 -60Q34 -60 50 -75T70 -113Q101 -106 115 -68Q125 -39 125 1V346H43V438H234V7Q234 -64 209 -112Q165 -200 58 -200Q6 -200 -21 -177T-49 -121ZM160 505Q131 505 110 526T88
577T110 628T162 649Q191 649 212 628T234 577T212 526T160 505Z" />
<glyph unicode="k" glyph-name="k" horiz-adv-x="552" d="M26 0V90H91V640H26V732H200V241L328 351H267V438H526V346H445L343 260L454 92H526V0H389L263 197L200 144V88H255V0H26Z" />
<glyph unicode="l" glyph-name="l" horiz-adv-x="295" d="M26 0V90H94V640H26V732H203V90H268V0H26Z" />
<glyph unicode="m" glyph-name="m" horiz-adv-x="836" d="M31 0V90H96V346H31V438H201V369Q272 446 348 446Q416 446 452 399Q459 390 466 374Q540 446 612 446Q703 446 737 383Q755 350 755 301V90H820V0H587V90H646V275Q646 301 639 316Q626 347 587 347Q538
347 480 298V90H539V0H311V90H371V275Q371 301 364 316Q351 347 312 347Q263 347 205 298V90H263V0H31Z" />
<glyph unicode="n" glyph-name="n" horiz-adv-x="571" d="M201 438V368Q281 446 354 446Q430 446 467 390Q490 353 490 300V90H555V0H321V90H381V273Q381 302 372 318Q357 347 318 347Q267 347 205 296V90H265V0H31V90H96V346H31V438H201Z" />
<glyph unicode="o" glyph-name="o" horiz-adv-x="534" d="M267 -8Q162 -8 98 58T34 219Q34 312 98 379T267 446Q372 446 436 380T500 219Q500 126 436 59T267 -8ZM214 83T267 83T354 121T388 219T354 317T267 355T180 317T146 219T180 121Z" />
<glyph unicode="p" glyph-name="p" horiz-adv-x="560" d="M26 -196V-106H91V346H26V438H196V388Q258 446 326 446Q412 446 469 383T526 221Q526 126 466 59T319 -8Q255 -8 200 34V-106H271V-196H26ZM302 86Q348 86 381 122T414 220Q414 281 382 316T302 352Q249
352 200 308V120Q248 86 302 86Z" />
<glyph unicode="q" glyph-name="q" horiz-adv-x="532" d="M287 -196V-104H366V48Q308 -8 237 -8Q149 -8 92 55T34 217Q34 313 95 379T244 446Q315 446 377 396L401 441H475V-104H541V-196H287ZM262 86Q315 86 366 130V318Q317 352 262 352Q214 352 180 316T146
218Q146 157 179 122T262 86Z" />
<glyph unicode="r" glyph-name="r" horiz-adv-x="435" d="M340 446Q379 446 400 426T421 374Q421 346 402 326T356 306Q310 306 292 345Q269 337 245 314T205 262V90H281V0H31V90H96V346H31V438H201V339Q268 446 340 446Z" />
<glyph unicode="s" glyph-name="s" horiz-adv-x="458" d="M406 341Q406 315 391 299T352 282Q326 282 310 296T293 336Q293 349 295 355Q267 366 233 366Q198 366 179 353T160 321Q160 303 180 291T252 265Q340 241 379 214T418 132Q418 66 365 29T233 -9Q183
-9 135 6T65 44Q40 69 40 103Q40 127 56 144T98 162Q122 162 139 147T157 104Q157 98 155 86Q190 72 234 72Q269 72 291 84T314 119Q314 136 296 147T228 172Q133 197 95 225T56 308Q56 364 102 405T235 447Q276 447 318 433T382 397Q406 373 406 341Z" />
<glyph unicode="t" glyph-name="t" horiz-adv-x="369" d="M227 -8Q140 -8 109 52Q94 79 94 121V346H9V438H94V530L202 577V438H335V346H202V142Q202 123 209 110Q221 89 255 89Q291 89 341 112L332 18Q280 -8 227 -8Z" />
<glyph unicode="u" glyph-name="u" horiz-adv-x="566" d="M217 -8Q138 -8 103 50Q81 86 81 138V346H16V438H190V165Q190 138 199 120Q214 91 253 91Q304 91 366 142V346H298V438H475V90H540V0H370V70Q290 -8 217 -8Z" />
<glyph unicode="v" glyph-name="v" horiz-adv-x="538" d="M230 -8L56 346H5V438H229V351H166L271 123L376 351H310V438H533V346H482L308 -8H230Z" />
<glyph unicode="w" glyph-name="w" horiz-adv-x="726" d="M177 -17L69 346H5V438H230V348H168L228 133L331 393H406L508 133L568 348H496V438H721V346H657L549 -17H472L363 251L254 -17H177Z" />
<glyph unicode="x" glyph-name="x" horiz-adv-x="535" d="M12 0V92H70L206 221L74 346H22V438H243V352H188L269 267L349 352H293V438H510V346H456L328 224L467 92H523V0H302V86H353L264 179L177 86H229V0H12Z" />
<glyph unicode="y" glyph-name="y" horiz-adv-x="532" d="M235 -142Q186 -199 119 -199Q77 -199 51 -179T25 -130Q25 -103 40 -89T79 -74Q113 -74 127 -107Q146 -102 162 -81Q170 -70 182 -47L215 22L59 346H5V438H231V351H167L268 120L370 351H302V438H527V346H474L269
-89Q253 -122 235 -142Z" />
<glyph unicode="z" glyph-name="z" horiz-adv-x="463" d="M29 0V64L293 352H138V271H45V438H429V375L165 87H342V168H434V0H29Z" />
<glyph unicode="{" glyph-name="braceleft" horiz-adv-x="388" d="M343 -217Q202 -213 138 -170T73 -54Q73 -9 94 23T155 90Q178 111 188 125T198 158Q198 184 171 201T88 218H59V310H88Q143 310 170 327T198 370Q198 389 188 403T155 438Q115 472 94 504T73 582Q73
654 137 697T343 745V662Q176 652 176 581Q176 553 235 494Q273 456 292 427T311 366Q311 325 279 299T190 264Q246 255 278 229T311 162Q311 130 292 101T235 34Q176 -25 176 -53Q176 -124 343 -134V-217Z" />
<glyph unicode="|" glyph-name="bar" horiz-adv-x="284" d="M95 -200V732H189V-200H95Z" />
<glyph unicode="}" glyph-name="braceright" horiz-adv-x="388" d="M45 -217V-134Q212 -124 212 -53Q212 -25 153 34Q115 72 96 101T77 162Q77 203 109 229T198 264Q142 273 110 299T77 366Q77 398 96 427T153 494Q212 553 212 581Q212 652 45 662V745Q186 741
250 698T315 582Q315 537 294 505T233 438Q210 417 200 403T190 370Q190 344 217 327T300 310H329V218H300Q245 218 218 201T190 158Q190 139 200 125T233 90Q273 56 294 24T315 -54Q315 -126 251 -169T45 -217Z" />
<glyph unicode="~" glyph-name="asciitilde" horiz-adv-x="460" d="M308 184Q260 184 219 221Q182 254 159 254Q123 254 107 190L33 209Q41 279 75 319T152 360Q200 360 241 323Q278 290 301 290Q337 290 353 354L427 335Q419 265 385 225T308 184Z" />
</font>
</defs>
</svg>
