<?xml version="1.0" standalone="no"?>
<!DOCTYPE svg PUBLIC "-//W3C//DTD SVG 1.1//EN" "http://www.w3.org/Graphics/SVG/1.1/DTD/svg11.dtd" >
<svg xmlns="http://www.w3.org/2000/svg">
<metadata>
This is a custom SVG webfont generated by Font Squirrel.
Copyright   : 2005 Erik Spiekermann published by FSI FontShop International GmbH
Designer    : Erik Spiekermann
Foundry     : FSI
Foundry URL : httpwwwfontfontcom
</metadata>
<defs>
<font id="webfontLzUk7flm" horiz-adv-x="1056" >
<font-face units-per-em="2048" ascent="1626" descent="-422" />
<missing-glyph horiz-adv-x="454" />
<glyph unicode=" "  horiz-adv-x="454" />
<glyph unicode="&#x09;" horiz-adv-x="454" />
<glyph unicode="&#xa0;" horiz-adv-x="454" />
<glyph unicode="!" horiz-adv-x="522" d="M59 1423l390 21l-62 -981h-266zM72 151.5q0 77.5 52 130t130 52.5t130 -52.5t52 -131.5q0 -76 -54 -128.5t-132 -52.5q-76 0 -127 52.5t-51 130z" />
<glyph unicode="&#x22;" horiz-adv-x="851" d="M68 840v587h297v-587h-297zM483 840v587h299v-587h-299z" />
<glyph unicode="#" horiz-adv-x="1103" d="M25 348v258h194l35 248h-184v258h219l43 328h229l-43 -328h172l43 328h230l-43 -328h157v-258h-192l-35 -248h184v-258h-219l-47 -348h-229l49 348h-174l-47 -348h-230l49 348h-161zM449 606h174l32 248h-172z" />
<glyph unicode="$" horiz-adv-x="1038" d="M16 104l113 261q168 -123 330 -123q104 0 158.5 44t54.5 122q0 68 -37 99.5t-131 53.5l-127 29q-324 70 -324 414q0 168 86 281.5t246 150.5v174h256v-164q197 -23 334 -125l-137 -246q-135 111 -285 111q-82 0 -129 -39t-47 -105q0 -55 32.5 -87.5t120.5 -51.5l129 -29 q176 -35 259 -137t83 -286q0 -195 -97 -311.5t-279 -149.5v-172h-254v164q-199 20 -355 122z" />
<glyph unicode="%" horiz-adv-x="1642" d="M51 1075q0 170 93.5 273.5t250.5 103.5q160 0 249 -96t89 -262q0 -186 -88 -289t-256 -103q-156 0 -247 102.5t-91 270.5zM307 1077q0 -115 19.5 -161t66.5 -46q43 0 63.5 50.5t20.5 171.5q0 115 -18.5 153.5t-67.5 38.5q-47 0 -65.5 -44t-18.5 -163zM311 0l783 1427h233 l-780 -1427h-236zM907 336q0 184 88 286.5t256 102.5q156 0 247 -102.5t91 -268.5q0 -170 -93 -274.5t-251 -104.5q-160 0 -249 96.5t-89 264.5zM1163 336q0 -113 17.5 -153t66.5 -40t67.5 44t18.5 163q0 115 -19.5 161t-66.5 46q-45 0 -64.5 -50t-19.5 -171z" />
<glyph unicode="&#x26;" horiz-adv-x="1345" d="M33 379q4 262 289 375q-162 139 -162 317t120.5 279.5t340.5 101.5q190 0 305.5 -90t115.5 -244q0 -121 -70.5 -212t-232.5 -165l191 -225q78 143 106 299l279 -29q-63 -289 -215 -473l266 -313h-393l-99 121q-147 -145 -389 -146q-215 0 -333.5 107t-118.5 297zM362 401 q0 -90 48.5 -141t134.5 -51q113 0 188 82l-258 313q-113 -88 -113 -203zM483 1090q0 -106 115 -207q139 80 139 219q0 57 -33.5 92t-91 35t-93.5 -40t-36 -99z" />
<glyph unicode="'" horiz-adv-x="436" d="M68 840v587h297v-587h-297z" />
<glyph unicode="(" horiz-adv-x="710" d="M78 608q0 356 129 608t371 373l163 -176q-330 -219 -329 -790q0 -231 50 -400.5t116.5 -254.5t162.5 -152l-163 -174q-238 117 -369 369.5t-131 596.5z" />
<glyph unicode=")" horiz-adv-x="710" d="M-31 -184q330 225 330 792q0 231 -49 399.5t-115.5 252t-165.5 153.5l162 176q242 -119 372 -371.5t130 -596.5q0 -354 -131 -608.5t-371 -370.5z" />
<glyph unicode="*" horiz-adv-x="872" d="M43 1094l72 194l213 -80l-2 238h215v-238l213 80l73 -194l-227 -76l152 -195l-168 -129l-148 195l-149 -195l-168 129l149 195z" />
<glyph unicode="+" horiz-adv-x="1058" d="M49 573v275h340v362h283v-362h338v-275h-338v-364h-283v364h-340z" />
<glyph unicode="," horiz-adv-x="446" d="M20 -141q143 47 144 112q0 20 -20.5 37t-46 30t-46 47t-20.5 85q0 72 51 120t131 48q90 0 144.5 -66.5t54.5 -179.5q0 -139 -85 -242.5t-278 -123.5z" />
<glyph unicode="-" horiz-adv-x="679" d="M61 434v271h560v-271h-560z" />
<glyph unicode="." horiz-adv-x="446" d="M39 154q0 78 53 131t131 53t129 -53.5t51 -132.5q0 -78 -53 -129.5t-133 -51.5q-78 0 -128 51.5t-50 131.5z" />
<glyph unicode="/" horiz-adv-x="714" d="M-90 -319l539 1818h282l-538 -1818h-283z" />
<glyph unicode="0" horiz-adv-x="1210" d="M53 694q0 385 135.5 571.5t413.5 186.5q274 0 413.5 -182.5t139.5 -540.5q0 -379 -136 -565.5t-415 -186.5q-551 0 -551 717zM414 713q0 -258 45 -366.5t147 -108.5q100 0 143.5 108.5t43.5 364.5q0 262 -44 370.5t-149 108.5q-98 0 -142 -110.5t-44 -366.5z" />
<glyph unicode="1" horiz-adv-x="827" d="M27 1153l376 287h273v-1440h-340v1061l-207 -111z" />
<glyph unicode="2" horiz-adv-x="1062" d="M31 1276q78 78 206 127t275 49q238 0 359.5 -111.5t121.5 -322.5q0 -111 -42 -211t-129 -195.5t-180 -173.5t-232 -176h600l-23 -262h-942v260q225 193 334 301q145 145 204.5 236.5t59.5 177.5q0 188 -180 188q-168 0 -305 -133z" />
<glyph unicode="3" horiz-adv-x="1046" d="M20 1296q82 68 208 112t259 44q227 0 344 -93t117 -272q0 -229 -225 -309q270 -61 270 -325q0 -229 -161.5 -353.5t-464.5 -124.5q-143 0 -301 33l-19 248q131 -27 246 -29q168 0 263 54.5t95 164.5q0 180 -258 181q-74 0 -160 -11v236h140q260 2 260 182q0 154 -187 154 q-156 0 -303 -117z" />
<glyph unicode="4" horiz-adv-x="1130" d="M29 307v262l403 858h322l-402 -860h303v150q0 119 27 260l8 51l279 41v-500h149v-262h-149v-307h-324v307h-616z" />
<glyph unicode="5" horiz-adv-x="997" d="M43 256q109 -20 242 -20q326 0 325 229q0 96 -67.5 145t-192.5 49q-143 0 -280 -41l43 809h805l-23 -274h-526l-15 -268q115 12 154 12q211 0 328.5 -105.5t117.5 -293.5q0 -240 -162.5 -381.5t-486.5 -141.5q-113 0 -244 23z" />
<glyph unicode="6" horiz-adv-x="1132" d="M47 573q0 311 213 551t563 332l131 -225q-420 -150 -540 -436q111 96 266 96q190 0 304 -114.5t114 -315.5q0 -217 -146.5 -351.5t-382.5 -134.5q-254 0 -388 152.5t-134 445.5zM387 477q0 -121 50 -190.5t138.5 -69.5t138.5 59.5t50 165.5q0 104 -49 162t-129 58 q-106 0 -191 -70q-8 -74 -8 -115z" />
<glyph unicode="7" horiz-adv-x="985" d="M20 1153l23 274h920v-256q-168 -229 -299.5 -552.5t-159.5 -618.5h-348q35 289 167 597t298 556h-601z" />
<glyph unicode="8" horiz-adv-x="1122" d="M31 344q0 250 254 344q-215 121 -215 344q0 190 138 305t370 115q221 0 347 -97.5t126 -269.5q0 -215 -234 -303q272 -127 273 -379q0 -199 -143.5 -313.5t-391.5 -114.5q-240 0 -382 100.5t-142 268.5zM352 375q0 -184 209 -185q86 0 140.5 49.5t54.5 131.5 q0 53 -17.5 91t-60.5 65.5t-74 41t-98 37.5q-154 -90 -154 -231zM393 1071q0 -86 52.5 -136t156.5 -87q139 88 139 219q0 170 -174 170q-78 0 -126 -44t-48 -122z" />
<glyph unicode="9" horiz-adv-x="1132" d="M35 967q0 215 144.5 350t377.5 135q256 0 392 -154.5t136 -445.5q0 -733 -811 -885l-106 215q244 70 388 180.5t181 282.5q-109 -113 -284 -113q-188 0 -303 117t-115 318zM373 985q0 -104 49 -162.5t129 -58.5q106 0 192 74q6 51 7 120q0 119 -49.5 185.5t-139.5 66.5 q-88 0 -138 -59.5t-50 -165.5z" />
<glyph unicode=":" horiz-adv-x="452" d="M43 154q0 78 53.5 131t131 53t129 -53.5t51.5 -132.5q0 -78 -53.5 -129.5t-131.5 -51.5t-129 51.5t-51 131.5zM43 747.5q0 77.5 53.5 131t130.5 53.5q76 0 128.5 -53.5t52.5 -131t-53.5 -129t-131.5 -51.5t-129 51.5t-51 129z" />
<glyph unicode=";" horiz-adv-x="452" d="M25 -141q143 49 143 112q0 20 -20.5 37t-46 30t-46 47t-20.5 85q0 72 51 120t131 48q90 0 144.5 -66.5t54.5 -179.5q0 -139 -86 -242.5t-277 -123.5zM43 747.5q0 77.5 53.5 131t130.5 53.5q76 0 128.5 -53.5t52.5 -130.5q0 -76 -53.5 -128.5t-131.5 -52.5t-129 51.5 t-51 129z" />
<glyph unicode="&#x3c;" horiz-adv-x="794" d="M35 709l465 587l254 -176l-316 -411l316 -412l-254 -178z" />
<glyph unicode="=" horiz-adv-x="1009" d="M63 354v264h883v-264h-883zM63 803v264h883v-264h-883z" />
<glyph unicode="&#x3e;" horiz-adv-x="794" d="M39 297l317 412l-315 411l252 176l467 -587l-467 -588z" />
<glyph unicode="?" horiz-adv-x="866" d="M10 1315q180 135 412 135q203 0 318.5 -91t115.5 -259q0 -92 -25.5 -164t-64.5 -112t-84 -79.5t-83 -69.5t-61.5 -78t-21.5 -108l2 -36h-276q-6 27 -6 86q-2 96 24.5 167.5t66.5 111.5t79.5 71t68.5 66.5t29 80.5q0 59 -39 92t-103 33q-119 0 -237 -90zM201 151.5 q0 77.5 52 130t130 52.5t130 -52.5t52 -131.5q0 -76 -54 -128.5t-132 -52.5q-76 0 -127 52.5t-51 130z" />
<glyph unicode="@" horiz-adv-x="1802" d="M57 393q0 379 257 641t632 262q358 0 578.5 -195.5t220.5 -514.5q0 -258 -130 -429t-325 -171q-211 0 -278 137q-88 -137 -244 -137q-182 0 -262 135t-27 356q47 201 180.5 313.5t319.5 112.5q106 0 210.5 -25.5t153.5 -54.5l-112 -499q-23 -111 -1.5 -151t91.5 -40 q102 0 171 124t69 314q0 268 -167 422t-458 154q-297 0 -492.5 -210t-195.5 -529q0 -303 168 -473.5t465 -170.5q152 0 301 54l32 -142q-174 -59 -344 -59q-377 0 -595 209t-218 567zM764 451q-66 -272 63 -273q102 0 136 150l77 364q-37 20 -77 21q-78 0 -122 -62.5 t-77 -199.5z" />
<glyph unicode="A" horiz-adv-x="1189" d="M-6 0l436 1427h354l416 -1427h-364l-78 326h-357l-82 -326h-325zM459 555h246l-33 133q-68 272 -84 391q-14 -80 -92 -391z" />
<glyph unicode="B" horiz-adv-x="1142" d="M90 0v1427h557q215 0 316.5 -86t101.5 -256q0 -111 -59.5 -196.5t-165.5 -118.5q129 -31 201.5 -124t72.5 -226q0 -420 -508 -420h-516zM424 248h154q197 0 196 188q0 184 -196 185h-154v-373zM424 856h143q80 0 125 46t45 128t-41 118t-135 36h-137v-328z" />
<glyph unicode="C" horiz-adv-x="1105" d="M43 708.5q0 358.5 161 550t468 191.5q252 0 422 -125l-123 -258q-131 100 -275 100q-150 0 -218 -105.5t-68 -338.5q0 -258 65.5 -361.5t220.5 -103.5q135 0 275 98l123 -258q-172 -123 -424 -123q-307 0 -467 187.5t-160 546z" />
<glyph unicode="D" horiz-adv-x="1220" d="M90 0v1427h449q324 0 480.5 -163.5t156.5 -530.5q0 -344 -149.5 -538.5t-467.5 -194.5h-469zM430 276h107q74 0 121 15.5t85.5 62.5t56 140.5t17.5 242.5q0 111 -12 186.5t-32.5 121t-59.5 70t-80 31.5t-105 7h-98v-877z" />
<glyph unicode="E" horiz-adv-x="987" d="M90 0v1427h834l-23 -274h-471v-276h383v-267h-383v-334h520v-276h-860z" />
<glyph unicode="F" horiz-adv-x="935" d="M90 0v1427h828l-23 -274h-467v-293h385v-266h-383v-594h-340z" />
<glyph unicode="G" horiz-adv-x="1204" d="M43 707q0 362 163 552.5t470 190.5q258 0 438 -152l-149 -245q-129 119 -285 118q-150 0 -214.5 -103t-64.5 -347q0 -258 62.5 -370.5t204.5 -112.5q86 0 143 28v273h-188l-21 266h531v-705q-199 -125 -459 -125q-631 1 -631 732z" />
<glyph unicode="H" horiz-adv-x="1212" d="M90 0v1427h340v-536h350v536h340v-1427h-340v616h-350v-616h-340z" />
<glyph unicode="I" horiz-adv-x="542" d="M100 0v1427h340v-1427h-340z" />
<glyph unicode="J" horiz-adv-x="542" d="M-98 -147q115 59 157.5 142t42.5 279v1153h340v-1251q0 -432 -424 -530z" />
<glyph unicode="K" horiz-adv-x="1181" d="M90 0v1427h340v-653l367 653h374l-393 -667l404 -760h-398l-354 735v-735h-340z" />
<glyph unicode="L" horiz-adv-x="925" d="M90 0v1427h340v-1151h479l-20 -276h-799z" />
<glyph unicode="M" horiz-adv-x="1544" d="M35 0l121 1427h395l133 -528q59 -229 82 -410q29 180 92 408l141 530h387l121 -1427h-331l-39 598q-20 295 -25 418q-18 -129 -80 -402l-137 -614h-274l-136 612q-68 311 -82 404q-12 -340 -16 -418l-37 -598h-315z" />
<glyph unicode="N" horiz-adv-x="1236" d="M90 0v1427h326l293 -610q111 -254 139 -328q-16 172 -17 394v544h314v-1427h-324l-297 616l-141 328q18 -166 18 -395v-549h-311z" />
<glyph unicode="O" horiz-adv-x="1290" d="M43 696q0 346 154.5 551t449.5 205q291 0 445.5 -194.5t154.5 -526.5q0 -756 -600 -756q-289 0 -446.5 191.5t-157.5 529.5zM410 717q0 -268 54 -372.5t183 -104.5q131 0 182.5 100t51.5 375q0 264 -52.5 368.5t-181.5 104.5q-131 0 -184 -108.5t-53 -362.5z" />
<glyph unicode="P" horiz-adv-x="1124" d="M90 0v1427h459q285 0 416 -108.5t131 -343.5q0 -223 -137.5 -341t-401.5 -118h-127v-516h-340zM424 752h111q121 0 176 53t55 168q0 211 -231 211h-111v-432z" />
<glyph unicode="Q" horiz-adv-x="1290" d="M43 696q0 346 154.5 551t449.5 205q291 0 445.5 -194.5t154.5 -526.5q0 -473 -266 -608q37 -8 102.5 -31.5t123.5 -36.5q44 -9 88 -9q15 0 30 1l-16 -258q-18 -6 -49 -6q-90 0 -177.5 24.5t-189.5 68.5t-145 58q-51 18 -176.5 47t-190.5 58q-338 143 -338 657zM410 717 q0 -268 54 -372.5t183 -104.5q131 0 182.5 100t51.5 375q0 264 -52.5 368.5t-181.5 104.5q-131 0 -184 -108.5t-53 -362.5z" />
<glyph unicode="R" horiz-adv-x="1146" d="M90 0v1427h455q270 0 405 -96t135 -303q0 -162 -72.5 -253t-219.5 -120q100 -23 161 -163l205 -492h-371l-167 457q-29 70 -59 91t-93 21h-39v-569h-340zM430 797h102q115 0 162 45t47 147q0 94 -49 137t-153 43h-109v-372z" />
<glyph unicode="S" horiz-adv-x="1048" d="M31 104l114 261q172 -123 336 -123q104 0 159.5 44t55.5 122q0 68 -39 102.5t-133 56.5l-123 29q-330 72 -329 408q0 207 126 327.5t359 120.5q266 0 447 -131l-140 -246q-55 45 -135 78t-154 33q-82 0 -128 -39t-46 -105q0 -55 34 -91t122 -56l127 -29q180 -37 264 -135 t84 -280q0 -233 -141 -354.5t-406 -121.5q-249 0 -454 129z" />
<glyph unicode="T" horiz-adv-x="1038" d="M23 1153v274h1015l-22 -274h-320v-1153h-342v1153h-331z" />
<glyph unicode="U" horiz-adv-x="1198" d="M82 451v976h340v-964q0 -104 41 -155.5t135 -51.5q96 0 137 49t41 156v966h340v-989q0 -463 -518 -463q-264 0 -390 116t-126 360z" />
<glyph unicode="V" horiz-adv-x="1189" d="M-6 1427h366l166 -688q66 -285 80 -389q16 94 88 389l172 688h334l-422 -1427h-383z" />
<glyph unicode="W" horiz-adv-x="1681" d="M4 1427h354l86 -593q33 -215 43 -406q29 209 70 403l125 596h334l121 -598q51 -252 71 -397q16 242 39 402l86 593h342l-280 -1427h-379l-107 551q-45 229 -67 416q-18 -143 -70 -416l-106 -551h-392z" />
<glyph unicode="X" horiz-adv-x="1204" d="M2 0l389 748l-362 679h385l198 -440l191 440h356l-352 -677l391 -750h-385l-229 512l-228 -512h-354z" />
<glyph unicode="Y" horiz-adv-x="1128" d="M-10 1427h366l211 -514l207 514h359l-404 -843v-584h-344v573z" />
<glyph unicode="Z" horiz-adv-x="1042" d="M39 0v248l571 905h-538l22 274h907v-247l-571 -906h576l-23 -274h-944z" />
<glyph unicode="[" horiz-adv-x="624" d="M86 -319v1818h510v-217h-197v-1384h197v-217h-510z" />
<glyph unicode="\" horiz-adv-x="716" d="M-12 1499h284l537 -1818h-283z" />
<glyph unicode="]" horiz-adv-x="624" d="M29 -102h196v1384h-196v217h510v-1818h-510v217z" />
<glyph unicode="^" horiz-adv-x="1110" d="M41 797l319 655h385l322 -655h-338l-176 393l-180 -393h-332z" />
<glyph unicode="_" horiz-adv-x="960" d="M0 -25h963v-192h-963v192z" />
<glyph unicode="`" horiz-adv-x="819" d="M139 1307l119 235l420 -237l-96 -175z" />
<glyph unicode="a" horiz-adv-x="974" d="M35 293q0 338 461 338q74 0 88 -6v90q0 115 -131 114q-154 0 -295 -98l-109 219q186 127 453 127q205 0 305 -74.5t100 -263.5v-420q0 -182 51 -264l-270 -82q-27 14 -48.5 46t-25.5 65q-113 -109 -254 -109q-156 0 -240.5 86.5t-84.5 231.5zM338 311q0 -135 119 -135 q72 0 125 66v215q-29 4 -58 4q-102 0 -144 -36t-42 -114z" />
<glyph unicode="b" d="M78 0v1430l303 53q23 -90 22 -246v-244q80 88 232 88q385 0 385 -538q0 -293 -109.5 -430.5t-298.5 -137.5q-154 0 -237 99q-6 -45 -15 -74h-282zM403 260q45 -59 123 -59q84 0 119 69.5t35 253.5q0 174 -31 242t-108 68q-84 0 -138 -70v-504z" />
<glyph unicode="c" horiz-adv-x="866" d="M33 526.5q0 264.5 132 409.5t376 145q193 0 305 -86l-82 -231q-102 68 -186 67q-205 0 -205 -296q0 -311 205 -312q90 0 188 72l82 -232q-147 -88 -326 -88q-240 0 -364.5 143.5t-124.5 408z" />
<glyph unicode="d" d="M37 543q0 100 21.5 191t66.5 171t127 127t190 47q127 0 213 -67v469l324 -31v-1450h-283q-8 18 -12 84q-94 -109 -244 -109q-193 0 -298 139.5t-105 428.5zM379 528q0 -174 29.5 -240.5t107.5 -66.5q82 0 139 68v506q-49 59 -123 59q-84 0 -118.5 -71t-34.5 -255z" />
<glyph unicode="e" horiz-adv-x="991" d="M33 524q0 264 129 410.5t350 146.5q236 0 340 -132t104 -412v-91h-589q4 -117 53 -174t170 -57q106 0 235 90l127 -203q-174 -127 -407 -127q-256 0 -384 144.5t-128 404.5zM367 631h274v29q0 108 -28 154q-32 52 -105 52q-72 0 -105.5 -55t-35.5 -180z" />
<glyph unicode="f" horiz-adv-x="628" d="M20 836v221h97v125q0 172 76.5 246.5t250.5 74.5q117 0 228 -47l-51 -217q-41 23 -89 23q-92 0 -92 -103v-102h172v-221h-168v-836h-323v836h-101z" />
<glyph unicode="g" horiz-adv-x="1003" d="M8 -135q0 68 33 117h278q-14 -25 -14 -60q0 -106 182 -106q207 0 207 127q0 47 -33.5 65.5t-121.5 18.5h-217q-258 0 -259 204q0 135 144 218q-170 84 -170 280q0 166 115.5 259t326.5 93q92 0 180.5 -19.5t128.5 -19.5q53 0 125 11.5t88 17.5v-215h-139q59 -49 60 -147 q0 -147 -111 -229.5t-326 -84.5q-164 -2 -163 -69q0 -18 18 -31.5t53 -13.5h232q186 0 278 -80t92 -226q0 -176 -132 -272t-396 -96q-231 0 -345 69.5t-114 188.5zM340 733.5q0 -151.5 135 -151.5q137 0 137 153q0 150 -135 150q-137 0 -137 -151.5z" />
<glyph unicode="h" horiz-adv-x="1042" d="M78 0v1430l303 53q23 -90 22 -246v-266q119 111 277 110q295 0 295 -288v-793h-326v690q0 78 -24.5 107.5t-77.5 29.5q-82 0 -144 -65v-762h-325z" />
<glyph unicode="i" horiz-adv-x="489" d="M76 1337.5q0 69.5 47 117.5t120.5 48t122 -48t48.5 -117.5t-48.5 -118t-121.5 -48.5q-72 0 -120 48.5t-48 118zM80 0v1044l326 29v-1073h-326z" />
<glyph unicode="j" horiz-adv-x="489" d="M-47 -219q72 43 101.5 108.5t29.5 200.5v954l326 29v-967q0 -217 -69 -326.5t-243 -174.5zM80 1337.5q0 69.5 47 117.5t121 48t122 -48t48 -117.5t-48 -118t-122 -48.5q-72 0 -120 48.5t-48 118z" />
<glyph unicode="k" horiz-adv-x="1034" d="M78 0v1430l303 53q23 -90 22 -246v-643l254 463h351l-295 -475l317 -582h-362l-265 530v-530h-325z" />
<glyph unicode="l" horiz-adv-x="522" d="M80 283v1147l303 53q23 -90 23 -246v-901q0 -80 12 -103.5t43 -23.5q8 0 28 4l25 -209q-72 -29 -164 -29q-164 0 -217 75t-53 233z" />
<glyph unicode="m" horiz-adv-x="1556" d="M78 0v1038l276 39q18 -43 21 -110q115 115 276 114q195 0 250 -135q125 135 295 135q291 0 291 -284v-797h-320v705q0 70 -23.5 96t-74.5 26q-72 0 -127 -59v-768h-319v705q0 70 -24 96t-75 26q-72 0 -127 -59v-768h-319z" />
<glyph unicode="n" horiz-adv-x="1042" d="M78 0v1038l276 39q20 -53 21 -123q135 127 305 127q295 0 295 -288v-793h-326v690q0 78 -24.5 107.5t-77.5 29.5q-82 0 -144 -65v-762h-325z" />
<glyph unicode="o" d="M33 526q0 252 132 403.5t365 151.5q229 0 360.5 -135t131.5 -401q0 -285 -134 -427.5t-364 -142.5q-227 0 -359 147.5t-132 403.5zM379 535q0 -190 33.5 -265t115.5 -75q76 0 111 78.5t35 267.5q0 186 -35 254.5t-113 68.5q-76 0 -111.5 -71.5t-35.5 -257.5z" />
<glyph unicode="p" d="M78 -383v1419l274 41q16 -45 23 -119q43 53 112.5 88t147.5 35q385 0 385 -538q0 -567 -428 -568q-115 0 -189 64v-377zM403 260q45 -59 123 -59q84 0 119 69.5t35 253.5q0 174 -31 242t-108 68q-84 0 -138 -70v-504z" />
<glyph unicode="q" d="M37 512q0 567 422 567q70 0 132 -30.5t95 -79.5q6 49 19 88h274v-1405l-324 -47v465q-100 -96 -231 -97q-387 0 -387 539zM379 528q0 -174 29.5 -240.5t107.5 -66.5q82 0 139 68v506q-49 59 -123 59q-84 0 -118.5 -71t-34.5 -255z" />
<glyph unicode="r" horiz-adv-x="700" d="M78 0v1038l276 39q20 -49 21 -125q68 131 215 131q66 0 115 -20l-50 -285q-49 23 -92 23q-139 0 -160 -129v-672h-325z" />
<glyph unicode="s" horiz-adv-x="882" d="M6 82l96 221q156 -106 324 -106q63 0 101 30.5t38 79.5q0 45 -27.5 63.5t-123.5 32.5l-74 13q-289 47 -289 319q0 164 106.5 255t301.5 91q215 0 377 -86l-82 -223q-141 88 -275 88q-63 0 -97 -26.5t-34 -71.5q0 -41 29 -57.5t121 -32.5l73 -10q145 -25 219 -100t74 -218 q0 -170 -117.5 -269.5t-328.5 -99.5q-240 1 -412 107z" />
<glyph unicode="t" horiz-adv-x="671" d="M18 836v221h99q0 160 14 264l309 45v-309h191l-2 -221h-191v-517q0 -68 18.5 -89t70 -21t100.5 24l26 -213q-100 -47 -237 -47q-156 0 -227.5 70t-71.5 225v568h-99z" />
<glyph unicode="u" horiz-adv-x="1042" d="M70 264v778l325 29v-704q0 -78 24.5 -108t78.5 -30q82 0 143 66v747l326 29v-1053l-277 -38q-20 53 -20 122q-135 -127 -305 -127q-295 0 -295 289z" />
<glyph unicode="v" horiz-adv-x="1017" d="M0 1057l336 16l92 -313q86 -301 100 -393q18 127 101 393l90 297h313l-368 -1057h-295z" />
<glyph unicode="w" horiz-adv-x="1437" d="M14 1057l310 16l65 -356q37 -195 55 -393q25 231 62 393l76 340h297l69 -340q37 -180 64 -391q23 236 51 393l61 338h316l-264 -1057h-308l-73 332q-45 203 -70 393q-20 -166 -72 -391l-75 -334h-306z" />
<glyph unicode="x" horiz-adv-x="1015" d="M-4 0l319 539l-305 518l348 14l88 -172q18 -39 44 -103.5t30 -72.5q8 16 33 78.5t41 97.5l78 158h338l-299 -512l313 -545h-350l-94 188q-51 111 -74 185q-35 -92 -74 -183l-98 -190h-338z" />
<glyph unicode="y" horiz-adv-x="1017" d="M0 1055l338 20l102 -403q74 -309 88 -398q6 47 18.5 108.5t34 151t31.5 138.5l95 383h319l-293 -1016q-59 -211 -174 -314.5t-328 -117.5l-75 221q121 14 175 50t91 122h-78z" />
<glyph unicode="z" horiz-adv-x="884" d="M51 0v211l426 604h-403v242h770v-221l-418 -594h434l-20 -242h-789z" />
<glyph unicode="{" horiz-adv-x="737" d="M49 479v223q98 0 142.5 36t44.5 108v317q0 184 78.5 260t277.5 76h117v-217h-52q-49 0 -76.5 -20.5t-33.5 -45t-6 -65.5v-330q0 -193 -156 -231q156 -37 156 -228v-333q0 -31 4 -50.5t16 -40t40 -30.5t71 -10h37v-217h-117q-197 0 -276.5 77.5t-79.5 259.5v314 q0 76 -42.5 111.5t-144.5 35.5z" />
<glyph unicode="|" horiz-adv-x="503" d="M100 -319v1818h301v-1818h-301z" />
<glyph unicode="}" horiz-adv-x="737" d="M29 -102h37q82 0 106.5 33.5t24.5 97.5v333q0 190 157 228q-158 37 -157 231v330q0 41 -6.5 65.5t-34 45t-76.5 20.5h-51v217h116q199 0 278 -75.5t79 -260.5v-317q0 -72 44 -108t142 -36v-223q-102 0 -144 -35.5t-42 -111.5v-314q0 -182 -80 -259.5t-277 -77.5h-116v217 z" />
<glyph unicode="~" horiz-adv-x="1163" d="M66 424q6 420 276 420q82 0 174 -41t166 -82t111 -41q90 0 100 151l201 -12q-6 -420 -275 -420q-82 0 -174 41t-167 82t-111 41q-90 0 -101 -151z" />
<glyph unicode="&#xa1;" horiz-adv-x="522" d="M59 -393l62 979h266l62 -959zM72 899q0 78 53 129t133 51q78 0 128 -51t50 -129t-52 -131t-130 -53t-130 53t-52 131z" />
<glyph unicode="&#xa2;" horiz-adv-x="899" d="M47 526.5q0 223.5 94.5 362.5t274.5 178v170h256v-166q111 -18 188 -76l-82 -231q-102 68 -186 67q-205 0 -205 -296q0 -311 205 -312q90 0 188 72l82 -232q-100 -57 -205 -77v-158h-256v162q-174 37 -264 175t-90 361.5z" />
<glyph unicode="&#xa3;" horiz-adv-x="1083" d="M47 0v276h156v306h-150v258h140v110q0 502 479 502q262 0 405 -143l-141 -242q-102 98 -231 98q-182 0 -179 -192v-133h308v-258h-302v-306h519v-276h-1004z" />
<glyph unicode="&#xa4;" horiz-adv-x="1179" d="M31 420l149 145q-23 61 -22 131q0 82 30 150l-157 151l198 197l170 -176q49 25 115 24.5t121 -22.5l170 174l196 -195q-158 -152 -159 -151q27 -66 26 -135q0 -78 -24 -140l157 -151l-198 -197l-152 156q-55 -27 -139 -27q-80 0 -135 27l-152 -156zM410 700 q0 -106 24.5 -149t81.5 -43q100 0 100 203q0 106 -22.5 143t-81.5 37q-53 0 -77.5 -43.5t-24.5 -147.5z" />
<glyph unicode="&#xa5;" horiz-adv-x="1140" d="M16 1427h367l197 -493l192 493h356l-327 -643h272v-215h-340v-120h340v-216h-336v-233h-334v233h-337v216h340v120h-340v215h268z" />
<glyph unicode="&#xa6;" horiz-adv-x="503" d="M100 -319v768h301v-768h-301zM100 731v768h301v-768h-301z" />
<glyph unicode="&#xa7;" horiz-adv-x="1118" d="M33 539q0 207 192 290q-109 96 -108 248q0 180 119.5 277.5t338.5 97.5q242 0 410 -115l-113 -233q-150 96 -294 96q-156 0 -156 -102q0 -45 31.5 -68.5t115.5 -42.5l150 -33q367 -74 366 -346q0 -207 -192 -291q109 -96 108 -249q0 -186 -132 -289t-379.5 -103 t-426.5 121l113 234q158 -102 334 -103q186 0 186 119q0 43 -31.5 67.5t-115.5 45.5l-150 33q-366 74 -366 346zM315 600q0 -53 41 -84t123 -53l178 -37l50 -12q96 27 96 133q0 53 -41 84t-123 53l-178 37q-18 4 -51 12q-95 -31 -95 -133z" />
<glyph unicode="&#xa8;" horiz-adv-x="819" d="M51 1284.5q0 63.5 43 107.5t110.5 44t111.5 -44t44 -107.5t-44 -109t-111 -45.5q-66 0 -110 45.5t-44 109zM455 1284.5q0 63.5 44 107.5t111.5 44t110.5 -44t43 -107.5t-43 -109t-111 -45.5q-66 0 -110.5 45.5t-44.5 109z" />
<glyph unicode="&#xa9;" horiz-adv-x="1763" d="M51 712.5q0 360.5 235.5 598t594 237.5t593 -237.5t234.5 -598t-234.5 -597t-593 -236.5t-594 236.5t-235.5 597zM199 713q0 -297 194.5 -499t487.5 -202q295 0 488.5 201t193.5 500t-193.5 501.5t-488.5 202.5q-293 0 -487.5 -202.5t-194.5 -501.5zM520 715 q0 442 406 442q152 0 252 -74l-82 -182q-70 53 -150 53q-86 0 -124 -56t-38 -175q0 -127 36 -184.5t126 -57.5q82 0 150 51l82 -180q-100 -72 -252 -71q-406 0 -406 434z" />
<glyph unicode="&#xaa;" horiz-adv-x="765" d="M33 848q0 260 352 260q59 0 68 -4v67q0 86 -101 86q-117 0 -225 -75l-86 172q152 98 348 98q160 0 238 -58.5t78 -203.5v-320q0 -141 40 -202l-213 -66q-45 23 -57 84q-80 -84 -192 -84q-123 0 -186.5 67.5t-63.5 178.5zM268 862q0 -100 92 -100q53 0 91 49v164 q-10 2 -43 2q-76 0 -108 -29t-32 -86z" />
<glyph unicode="&#xab;" horiz-adv-x="1097" d="M33 516l329 483l222 -129l-207 -354l207 -354l-222 -129zM514 516l332 483l221 -129l-209 -354l209 -354l-221 -129z" />
<glyph unicode="&#xac;" horiz-adv-x="1011" d="M63 700v269h883v-613h-282v344h-601z" />
<glyph unicode="&#xad;" horiz-adv-x="679" d="M61 434v271h560v-271h-560z" />
<glyph unicode="&#xae;" horiz-adv-x="1112" d="M45 940q0 221 144.5 366.5t365.5 145.5q219 0 363.5 -145.5t144.5 -366.5q0 -219 -144.5 -365.5t-363.5 -146.5q-221 0 -365.5 145.5t-144.5 366.5zM145 940q0 -178 117 -299t293 -121q174 0 290 121t116 299t-116 300t-290 122q-176 0 -293 -122t-117 -300zM352 694v512 h223q199 0 199 -143q0 -119 -104 -137q43 -10 61 -60l70 -172h-164l-55 156q-8 23 -15.5 29t-25.5 6h-37v-191h-152zM504 979h49q68 0 68 63q0 59 -66 60h-51v-123z" />
<glyph unicode="&#xaf;" horiz-adv-x="819" d="M94 1167v197h631v-197h-631z" />
<glyph unicode="&#xb0;" horiz-adv-x="804" d="M47 1095.5q0 153.5 99.5 251t256.5 97.5q166 0 260.5 -88t94.5 -240q0 -168 -94.5 -265t-262.5 -97q-160 0 -257 94t-97 247.5zM299 1102q0 -109 24.5 -152t82.5 -43q100 0 100 203q0 109 -22.5 145.5t-82.5 36.5q-53 0 -77.5 -43t-24.5 -147z" />
<glyph unicode="&#xb1;" horiz-adv-x="989" d="M70 23v274h848v-274h-848zM70 729v275h282v301h283v-301h283v-275h-283v-301h-283v301h-282z" />
<glyph unicode="&#xb2;" horiz-adv-x="704" d="M35 1356q115 96 307 96q135 0 215 -67.5t80 -192.5q0 -115 -76 -210t-223 -206h324l-15 -194h-600v182q186 164 250.5 236.5t64.5 136.5q0 102 -106 102q-80 0 -160 -72z" />
<glyph unicode="&#xb3;" horiz-adv-x="684" d="M33 1366q121 86 284 86q143 0 226.5 -59.5t83.5 -159.5q0 -143 -140 -191q164 -35 164 -196q0 -131 -106.5 -205t-292.5 -74q-72 0 -182 19l-13 170q102 -16 150 -17q172 0 172 115q0 86 -141 86q-16 0 -45 -3t-37 -3v162h63q150 2 150 96q0 76 -93 76q-90 0 -172 -64z " />
<glyph unicode="&#xb4;" horiz-adv-x="819" d="M139 1305l422 237l119 -235l-442 -177z" />
<glyph unicode="&#xb5;" horiz-adv-x="1050" d="M78 -383v1425l325 29v-709q0 -74 26 -103.5t79 -29.5q78 0 141 68v745l326 29v-1053l-277 -38q-20 53 -20 124q-123 -115 -275 -124v-318z" />
<glyph unicode="&#xb6;" horiz-adv-x="1177" d="M25 1008q0 420 522 419h540v-1685h-231v1526h-147v-1526h-232v850q-209 0 -330.5 107.5t-121.5 308.5z" />
<glyph unicode="&#xb7;" horiz-adv-x="577" d="M76 563q0 88 62.5 151.5t150.5 63.5t149.5 -64.5t61.5 -154.5q0 -84 -63.5 -146.5t-151.5 -62.5t-148.5 62.5t-60.5 150.5z" />
<glyph unicode="&#xb8;" horiz-adv-x="817" d="M193 -385l45 129q51 -27 108 -27q86 0 86 64q0 25 -22.5 40t-61.5 15q-8 0 -57 -6l-19 29l64 141h162l-35 -74q82 0 132 -43t50 -110q0 -90 -69.5 -143.5t-196.5 -53.5q-112 0 -186 39z" />
<glyph unicode="&#xb9;" horiz-adv-x="661" d="M33 1255l235 172h215v-651h119v-194h-514v194h137v371l-121 -64z" />
<glyph unicode="&#xba;" horiz-adv-x="829" d="M33 1026q0 195 103.5 310.5t281.5 115.5q174 0 276.5 -103.5t102.5 -308.5q0 -219 -104.5 -328.5t-280.5 -109.5q-172 0 -275.5 112.5t-103.5 311.5zM303 1030q0 -143 25.5 -200.5t87.5 -57.5q111 0 110 266q0 139 -26.5 191.5t-85.5 52.5q-111 0 -111 -252z" />
<glyph unicode="&#xbb;" horiz-adv-x="1097" d="M33 162l209 354l-209 354l221 129l332 -483l-332 -483zM516 162l207 354l-207 354l221 129l330 -483l-330 -483z" />
<glyph unicode="&#xbc;" horiz-adv-x="1783" d="M39 1255l235 172h218v-651h118v-194h-514v194h135v371l-120 -64zM381 0l782 1427h234l-781 -1427h-235zM1008 168v192l252 496h251l-247 -496h163v23q0 68 15 158l6 32l211 27v-238h88v-194h-88v-168h-246v168h-405z" />
<glyph unicode="&#xbd;" horiz-adv-x="1761" d="M35 1255l235 172h215v-651h119v-194h-514v194h137v371l-121 -64zM365 0l780 1427h235l-782 -1427h-233zM1098 774q115 96 307 96q135 0 215 -67.5t80 -192.5q0 -115 -76 -210t-223 -205h323l-14 -195h-600v182q186 164 250.5 237t64.5 136q0 102 -106 102q-80 0 -160 -71 z" />
<glyph unicode="&#xbe;" horiz-adv-x="1773" d="M49 1366q121 86 285 86q143 0 226 -59.5t83 -159.5q0 -143 -139 -191q164 -37 164 -196q0 -131 -106.5 -205t-293.5 -74q-72 0 -182 19l-12 170q102 -16 149 -17q172 0 172 115q0 86 -141 86q-16 0 -45 -3t-37 -3v162h64q150 2 149 96q0 35 -25.5 55.5t-66.5 20.5 q-90 0 -172 -64zM362 0l781 1427h235l-782 -1427h-234zM997 168v192l250 496h254l-250 -496h166v23q0 90 15 158l6 32l213 27v-238h86v-194h-86v-168h-250v168h-404z" />
<glyph unicode="&#xbf;" horiz-adv-x="866" d="M10 -49q0 92 25.5 162.5t64.5 111.5t84 80l83 70q38 31 61.5 78t21.5 106l-2 37h277q6 -55 6 -84q2 -98 -24.5 -170t-66.5 -110.5t-80 -70.5t-69 -68t-29 -81q0 -59 39 -92t103 -33q117 0 237 93l115 -246q-182 -133 -412 -133q-203 0 -318.5 91t-115.5 259zM301 899 q0 78 53.5 129t132.5 51q78 0 128.5 -51t50.5 -129t-53.5 -131t-131.5 -53q-76 0 -128 53t-52 131z" />
<glyph unicode="&#xc0;" horiz-adv-x="1189" d="M-6 0l436 1427h354l416 -1427h-364l-78 326h-357l-82 -326h-325zM324 1677l118 236l420 -238l-96 -174zM459 555h246l-33 133q-68 272 -84 391q-14 -80 -92 -391z" />
<glyph unicode="&#xc1;" horiz-adv-x="1189" d="M-6 0l436 1427h354l416 -1427h-364l-78 326h-357l-82 -326h-325zM324 1675l421 238l119 -236l-442 -176zM459 555h246l-33 133q-68 272 -84 391q-14 -80 -92 -391z" />
<glyph unicode="&#xc2;" horiz-adv-x="1189" d="M-6 0l436 1427h354l416 -1427h-364l-78 326h-357l-82 -326h-325zM242 1657l350 248l350 -248l-106 -162l-244 145l-246 -145zM459 555h246l-33 133q-68 272 -84 391q-14 -80 -92 -391z" />
<glyph unicode="&#xc3;" horiz-adv-x="1189" d="M-6 0l436 1427h354l416 -1427h-364l-78 326h-357l-82 -326h-325zM205 1526q2 309 211 309q76 0 188.5 -54.5t136.5 -54.5q66 0 72 103l166 -8q-6 -313 -211 -314q-76 0 -189.5 55.5t-138.5 55.5q-63 0 -69 -100zM459 555h246l-33 133q-68 272 -84 391q-14 -80 -92 -391z " />
<glyph unicode="&#xc4;" horiz-adv-x="1189" d="M-6 0l436 1427h354l416 -1427h-364l-78 326h-357l-82 -326h-325zM236 1654.5q0 63.5 43 107.5t110.5 44t111.5 -44t44 -107.5t-44 -108.5t-112 -45q-66 0 -109.5 45t-43.5 108.5zM459 555h246l-33 133q-68 272 -84 391q-14 -80 -92 -391zM639 1654.5q0 63.5 44 107.5 t111.5 44t110.5 -44t43 -107.5t-43 -108.5t-110 -45q-66 0 -111 45t-45 108.5z" />
<glyph unicode="&#xc5;" horiz-adv-x="1189" d="M-6 0l436 1427h354l416 -1427h-364l-78 326h-357l-82 -326h-325zM377 1704q0 88 60.5 150.5t154.5 62.5q90 0 152.5 -62.5t62.5 -150.5q0 -90 -60.5 -151.5t-154.5 -61.5q-90 0 -152.5 62.5t-62.5 150.5zM459 555h246l-33 133q-68 272 -84 391q-14 -80 -92 -391z M477 1704q0 -49 33 -86t82 -37q51 0 83 36t32 87q0 49 -33 85t-82 36q-51 0 -83 -35t-32 -86z" />
<glyph unicode="&#xc6;" horiz-adv-x="1708" d="M-27 0l725 1427h951l-23 -274h-473v-276h383v-267h-383v-334h520v-276h-852v324h-354l-150 -324h-344zM573 555h248v551q-29 -78 -172 -391z" />
<glyph unicode="&#xc7;" horiz-adv-x="1105" d="M43 709q0 358 161 549.5t468 191.5q252 0 422 -125l-123 -258q-131 100 -275 100q-150 0 -218 -105.5t-68 -338.5q0 -258 65.5 -361.5t220.5 -103.5q135 0 275 98l123 -258q-172 -123 -424 -123h-15l-22 -49q82 0 132 -43t50 -110q0 -90 -69.5 -143.5t-196.5 -53.5 q-113 0 -187 39l46 129q51 -27 108 -27q86 0 86 64q0 25 -22.5 40t-61.5 15q-8 0 -57 -6l-19 29l60 133q-459 94 -459 717z" />
<glyph unicode="&#xc8;" horiz-adv-x="987" d="M90 0v1427h834l-23 -274h-471v-276h383v-267h-383v-334h520v-276h-860zM223 1677l119 236l420 -238l-96 -174z" />
<glyph unicode="&#xc9;" horiz-adv-x="987" d="M90 0v1427h834l-23 -274h-471v-276h383v-267h-383v-334h520v-276h-860zM223 1675l422 238l119 -236l-442 -176z" />
<glyph unicode="&#xca;" horiz-adv-x="987" d="M90 0v1427h834l-23 -274h-471v-276h383v-267h-383v-334h520v-276h-860zM141 1657l351 248l350 -248l-107 -162l-243 145l-246 -145z" />
<glyph unicode="&#xcb;" horiz-adv-x="987" d="M90 0v1427h834l-23 -274h-471v-276h383v-267h-383v-334h520v-276h-860zM135 1654.5q0 63.5 43 107.5t110.5 44t111.5 -44t44 -107.5t-44 -108.5t-111 -45q-66 0 -110 45t-44 108.5zM539 1654.5q0 63.5 44 107.5t111.5 44t110.5 -44t43 -107.5t-43 -108.5t-111 -45 q-66 0 -110.5 45t-44.5 108.5z" />
<glyph unicode="&#xcc;" horiz-adv-x="542" d="M0 1677l119 236l420 -238l-97 -174zM100 0v1427h340v-1427h-340z" />
<glyph unicode="&#xcd;" horiz-adv-x="542" d="M0 1675l422 238l119 -236l-443 -176zM100 0v1427h340v-1427h-340z" />
<glyph unicode="&#xce;" horiz-adv-x="542" d="M-82 1657l350 248l350 -248l-106 -162l-244 145l-245 -145zM100 0v1427h340v-1427h-340z" />
<glyph unicode="&#xcf;" horiz-adv-x="542" d="M-88 1654.5q0 63.5 43 107.5t110.5 44t111.5 -44t44 -107.5t-44 -108.5t-111 -45q-66 0 -110 45t-44 108.5zM100 0v1427h340v-1427h-340zM315 1654.5q0 63.5 44 107.5t112 44t111 -44t43 -107.5t-43 -108.5t-111 -45q-66 0 -111 45t-45 108.5z" />
<glyph unicode="&#xd0;" horiz-adv-x="1265" d="M4 596v258h131v573h451q322 0 479.5 -163.5t157.5 -530.5q0 -344 -150.5 -538.5t-468.5 -194.5h-469v596h-131zM475 276h109q74 0 120 15.5t84.5 62.5t56 140.5t17.5 242.5q0 137 -16.5 222t-56 126t-87 54.5t-127.5 13.5h-100v-299h197l-23 -258h-174v-320z" />
<glyph unicode="&#xd1;" horiz-adv-x="1236" d="M90 0v1427h326l293 -610q111 -254 139 -328q-16 172 -17 394v544h314v-1427h-324l-297 616l-141 328q18 -166 18 -395v-549h-311zM229 1526q2 309 211 309q76 0 188.5 -54.5t137.5 -54.5q66 0 72 103l166 -8q-6 -313 -211 -314q-76 0 -190 55.5t-138 55.5q-63 0 -70 -100 z" />
<glyph unicode="&#xd2;" horiz-adv-x="1290" d="M43 696q0 346 154.5 551t449.5 205q291 0 445.5 -194.5t154.5 -526.5q0 -756 -600 -756q-289 0 -446.5 191.5t-157.5 529.5zM375 1677l119 236l419 -238l-96 -174zM410 717q0 -268 54 -372.5t183 -104.5q131 0 182.5 100t51.5 375q0 264 -52.5 368.5t-181.5 104.5 q-131 0 -184 -108.5t-53 -362.5z" />
<glyph unicode="&#xd3;" horiz-adv-x="1290" d="M43 696q0 346 154.5 551t449.5 205q291 0 445.5 -194.5t154.5 -526.5q0 -756 -600 -756q-289 0 -446.5 191.5t-157.5 529.5zM375 1675l422 238l118 -236l-442 -176zM410 717q0 -268 54 -372.5t183 -104.5q131 0 182.5 100t51.5 375q0 264 -52.5 368.5t-181.5 104.5 q-131 0 -184 -108.5t-53 -362.5z" />
<glyph unicode="&#xd4;" horiz-adv-x="1290" d="M43 696q0 346 154.5 551t449.5 205q291 0 445.5 -194.5t154.5 -526.5q0 -756 -600 -756q-289 0 -446.5 191.5t-157.5 529.5zM293 1657l350 248l350 -248l-106 -162l-244 145l-246 -145zM410 717q0 -268 54 -372.5t183 -104.5q131 0 182.5 100t51.5 375q0 264 -52.5 368.5 t-181.5 104.5q-131 0 -184 -108.5t-53 -362.5z" />
<glyph unicode="&#xd5;" horiz-adv-x="1290" d="M43 696q0 346 154.5 551t449.5 205q291 0 445.5 -194.5t154.5 -526.5q0 -756 -600 -756q-289 0 -446.5 191.5t-157.5 529.5zM256 1526q2 309 211 309q76 0 188.5 -54.5t137.5 -54.5q66 0 71 103l166 -8q-6 -313 -211 -314q-76 0 -189.5 55.5t-137.5 55.5q-63 0 -70 -100z M410 717q0 -268 54 -372.5t183 -104.5q131 0 182.5 100t51.5 375q0 264 -52.5 368.5t-181.5 104.5q-131 0 -184 -108.5t-53 -362.5z" />
<glyph unicode="&#xd6;" horiz-adv-x="1290" d="M43 696q0 346 154.5 551t449.5 205q291 0 445.5 -194.5t154.5 -526.5q0 -756 -600 -756q-289 0 -446.5 191.5t-157.5 529.5zM287 1654.5q0 63.5 43 107.5t110.5 44t111.5 -44t44 -107.5t-44 -108.5t-112 -45q-66 0 -109.5 45t-43.5 108.5zM410 717q0 -268 54 -372.5 t183 -104.5q131 0 182.5 100t51.5 375q0 264 -52.5 368.5t-181.5 104.5q-131 0 -184 -108.5t-53 -362.5zM690 1654.5q0 63.5 44 107.5t111.5 44t110.5 -44t43 -107.5t-43 -108.5t-110 -45q-66 0 -111 45t-45 108.5z" />
<glyph unicode="&#xd7;" horiz-adv-x="1058" d="M45 420l297 289l-297 288l199 197l286 -297l289 297l197 -195l-297 -288l297 -289l-199 -197l-289 297l-288 -297z" />
<glyph unicode="&#xd8;" horiz-adv-x="1290" d="M37 696q0 346 154.5 551t449.5 205q152 0 264 -66l115 193l209 -94l-137 -236q150 -190 149 -518q0 -756 -600 -756q-145 0 -258 60l-125 -215l-209 94l148 252q-160 194 -160 530zM397 717q0 -133 23 -209l362 629q-49 51 -141 51q-131 0 -187.5 -109.5t-56.5 -361.5z M504 285q53 -45 137 -45q133 0 186.5 101t53.5 374q0 113 -21 182q-354 -612 -356 -612z" />
<glyph unicode="&#xd9;" horiz-adv-x="1198" d="M82 451v976h340v-964q0 -104 41 -155.5t135 -51.5q96 0 137 49t41 156v966h340v-989q0 -463 -518 -463q-264 0 -390 116t-126 360zM330 1679l119 236l419 -238l-96 -174z" />
<glyph unicode="&#xda;" horiz-adv-x="1198" d="M82 451v976h340v-964q0 -104 41 -155.5t135 -51.5q96 0 137 49t41 156v966h340v-989q0 -463 -518 -463q-264 0 -390 116t-126 360zM319 1677l422 238l119 -236l-442 -176z" />
<glyph unicode="&#xdb;" horiz-adv-x="1198" d="M82 451v976h340v-964q0 -104 41 -155.5t135 -51.5q96 0 137 49t41 156v966h340v-989q0 -463 -518 -463q-264 0 -390 116t-126 360zM238 1659l350 248l350 -248l-107 -162l-243 145l-246 -145z" />
<glyph unicode="&#xdc;" horiz-adv-x="1198" d="M82 451v976h340v-964q0 -104 41 -155.5t135 -51.5q96 0 137 49t41 156v966h340v-989q0 -463 -518 -463q-264 0 -390 116t-126 360zM231 1656.5q0 63.5 43 107.5t111 44t112 -44t44 -107.5t-44 -108.5t-112 -45q-66 0 -110 45t-44 108.5zM635 1656.5q0 63.5 44 107.5 t111.5 44t110.5 -44t43 -107.5t-43 -108.5t-110 -45q-66 0 -111 45t-45 108.5z" />
<glyph unicode="&#xdd;" horiz-adv-x="1128" d="M-10 1427h366l211 -514l207 514h359l-404 -843v-584h-344v573zM293 1675l422 238l119 -236l-443 -176z" />
<glyph unicode="&#xde;" horiz-adv-x="1132" d="M90 0v1427h340v-219h119q283 6 415 -104.5t132 -347.5q0 -223 -137.5 -341t-401.5 -118h-127v-297h-340zM424 532h111q121 0 176 53.5t55 168.5q0 211 -231 211h-111v-433z" />
<glyph unicode="&#xdf;" horiz-adv-x="1144" d="M78 0v1077q0 426 489 426q219 0 340 -93t121 -255q0 -78 -35 -138.5t-78 -89t-77.5 -57t-34.5 -51.5q0 -18 32 -41l75 -53q44 -31 89 -73t77 -111.5t32 -155.5q0 -201 -105.5 -303t-300.5 -102q-131 0 -219 32l25 234q57 -25 104 -25q156 0 156 164q0 59 -44 108.5 t-95 80t-95.5 83t-44.5 117.5q0 53 32 100.5t71 77t70.5 77.5t31.5 104q0 57 -38 93t-101 36q-154 0 -154 -179v-845q0 -145 -22 -238h-301z" />
<glyph unicode="&#xe0;" horiz-adv-x="974" d="M35 293q0 338 461 338q74 0 88 -6v90q0 115 -131 114q-154 0 -295 -98l-109 219q186 127 453 127q205 0 305 -74.5t100 -263.5v-420q0 -182 51 -264l-270 -82q-27 14 -48.5 46t-25.5 65q-113 -109 -254 -109q-156 0 -240.5 86.5t-84.5 231.5zM217 1307l119 235l420 -237 l-97 -175zM338 311q0 -135 119 -135q72 0 125 66v215q-29 4 -58 4q-102 0 -144 -36t-42 -114z" />
<glyph unicode="&#xe1;" horiz-adv-x="974" d="M35 293q0 338 461 338q74 0 88 -6v90q0 115 -131 114q-154 0 -295 -98l-109 219q186 127 453 127q205 0 305 -74.5t100 -263.5v-420q0 -182 51 -264l-270 -82q-27 14 -48.5 46t-25.5 65q-113 -109 -254 -109q-156 0 -240.5 86.5t-84.5 231.5zM217 1305l422 237l119 -235 l-443 -177zM338 311q0 -135 119 -135q72 0 125 66v215q-29 4 -58 4q-102 0 -144 -36t-42 -114z" />
<glyph unicode="&#xe2;" horiz-adv-x="974" d="M35 293q0 338 461 338q74 0 88 -6v90q0 115 -131 114q-154 0 -295 -98l-109 219q186 127 453 127q205 0 305 -74.5t100 -263.5v-420q0 -182 51 -264l-270 -82q-27 14 -48.5 46t-25.5 65q-113 -109 -254 -109q-156 0 -240.5 86.5t-84.5 231.5zM135 1286l350 248l351 -248 l-107 -162l-244 146l-245 -146zM338 311q0 -135 119 -135q72 0 125 66v215q-29 4 -58 4q-102 0 -144 -36t-42 -114z" />
<glyph unicode="&#xe3;" horiz-adv-x="974" d="M35 293q0 338 461 338q74 0 88 -6v90q0 115 -131 114q-154 0 -295 -98l-109 219q186 127 453 127q205 0 305 -74.5t100 -263.5v-420q0 -182 51 -264l-270 -82q-27 14 -48.5 46t-25.5 65q-113 -109 -254 -109q-156 0 -240.5 86.5t-84.5 231.5zM98 1155q2 309 211 309 q76 0 188.5 -54t137.5 -54q66 0 72 102l165 -8q-6 -313 -210 -313q-76 0 -190 55t-138 55q-63 0 -70 -100zM338 311q0 -135 119 -135q72 0 125 66v215q-29 4 -58 4q-102 0 -144 -36t-42 -114z" />
<glyph unicode="&#xe4;" horiz-adv-x="974" d="M35 293q0 338 461 338q74 0 88 -6v90q0 115 -131 114q-154 0 -295 -98l-109 219q186 127 453 127q205 0 305 -74.5t100 -263.5v-420q0 -182 51 -264l-270 -82q-27 14 -48.5 46t-25.5 65q-113 -109 -254 -109q-156 0 -240.5 86.5t-84.5 231.5zM129 1284.5q0 63.5 43 107.5 t110.5 44t111.5 -44t44 -107.5t-44 -109t-111 -45.5q-66 0 -110 45.5t-44 109zM338 311q0 -135 119 -135q72 0 125 66v215q-29 4 -58 4q-102 0 -144 -36t-42 -114zM532 1284.5q0 63.5 44.5 107.5t112 44t110.5 -44t43 -107.5t-43 -109t-111 -45.5q-66 0 -111 45.5t-45 109z " />
<glyph unicode="&#xe5;" horiz-adv-x="974" d="M35 293q0 338 461 338q74 0 88 -6v90q0 115 -131 114q-154 0 -295 -98l-109 219q186 127 453 127q205 0 305 -74.5t100 -263.5v-420q0 -182 51 -264l-270 -82q-27 14 -48.5 46t-25.5 65q-113 -109 -254 -109q-156 0 -240.5 86.5t-84.5 231.5zM270 1345.5q0 88.5 60.5 151 t154.5 62.5q90 0 152.5 -62.5t62.5 -150.5q0 -90 -60 -151.5t-155 -61.5q-90 0 -152.5 62t-62.5 150.5zM338 311q0 -135 119 -135q72 0 125 66v215q-29 4 -58 4q-102 0 -144 -36t-42 -114zM371 1346q0 -49 32.5 -86t81.5 -37q51 0 83 35.5t32 87.5q0 49 -32.5 84.5 t-82.5 35.5q-51 0 -82.5 -34.5t-31.5 -85.5z" />
<glyph unicode="&#xe6;" horiz-adv-x="1529" d="M35 293q0 338 461 338q74 0 88 -6v90q0 115 -131 114q-154 0 -295 -98l-109 219q186 127 438 127q207 0 293 -78q111 82 273 82q236 0 340 -132t104 -412v-91h-590q4 -119 54.5 -175t171.5 -56q104 0 233 90l127 -203q-174 -127 -408 -127q-260 0 -383 156 q-88 -156 -319 -156q-174 0 -261 84t-87 234zM338 311q0 -135 125 -135q117 0 119 133v2v2v2v2v2v3v2v2v2v2v2v2v2v2v4v2v2v2v2v4v2v2v2v5v2v4v2v2v4v2v4v2v4v2v4v2v4v5v2v4v4v2v4v4v4v2v4v19q-29 4 -58 4q-102 0 -144 -36t-42 -114zM907 631h275q4 131 -28 183t-105 52 q-72 0 -106 -55t-36 -180z" />
<glyph unicode="&#xe7;" horiz-adv-x="866" d="M33 526q0 264 132 409.5t376 145.5q193 0 305 -86l-82 -231q-102 68 -186 67q-205 0 -205 -296q0 -311 205 -312q90 0 188 72l82 -232q-147 -88 -326 -88l-22 -49q82 0 132 -43t50 -110q0 -90 -69.5 -143.5t-196.5 -53.5q-113 0 -187 39l45 129q51 -27 109 -27 q86 0 86 64q0 25 -22.5 40t-61.5 15q-8 0 -57 -6l-19 29l60 135q-166 41 -251 178t-85 354z" />
<glyph unicode="&#xe8;" horiz-adv-x="991" d="M33 524q0 264 129 410.5t350 146.5q236 0 340 -132t104 -412v-91h-589q4 -117 53 -174t170 -57q106 0 235 90l127 -203q-174 -127 -407 -127q-256 0 -384 144.5t-128 404.5zM180 1307l119 235l420 -237l-96 -175zM367 631h274q4 131 -27.5 183t-105.5 52 q-72 0 -105.5 -55t-35.5 -180z" />
<glyph unicode="&#xe9;" horiz-adv-x="991" d="M33 524q0 264 129 410.5t350 146.5q236 0 340 -132t104 -412v-91h-589q4 -117 53 -174t170 -57q106 0 235 90l127 -203q-174 -127 -407 -127q-256 0 -384 144.5t-128 404.5zM225 1305l422 237l119 -235l-442 -177zM367 631h274q4 131 -27.5 183t-105.5 52 q-72 0 -105.5 -55t-35.5 -180z" />
<glyph unicode="&#xea;" horiz-adv-x="991" d="M33 524q0 264 129 410.5t350 146.5q236 0 340 -132t104 -412v-91h-589q4 -117 53 -174t170 -57q106 0 235 90l127 -203q-174 -127 -407 -127q-256 0 -384 144.5t-128 404.5zM143 1286l351 248l350 -248l-107 -162l-243 146l-246 -146zM367 631h274q4 131 -27.5 183 t-105.5 52q-72 0 -105.5 -55t-35.5 -180z" />
<glyph unicode="&#xeb;" horiz-adv-x="991" d="M33 524q0 264 129 410.5t350 146.5q236 0 340 -132t104 -412v-91h-589q4 -117 53 -174t170 -57q106 0 235 90l127 -203q-174 -127 -407 -127q-256 0 -384 144.5t-128 404.5zM137 1284.5q0 63.5 43 107.5t110.5 44t111.5 -44t44 -107.5t-44 -109t-111 -45.5 q-66 0 -110 45.5t-44 109zM367 631h274q4 131 -27.5 183t-105.5 52q-72 0 -105.5 -55t-35.5 -180zM541 1284.5q0 63.5 44 107.5t111.5 44t110.5 -44t43 -107.5t-43 -109t-111 -45.5q-66 0 -110.5 45.5t-44.5 109z" />
<glyph unicode="&#xec;" horiz-adv-x="489" d="M-27 1307l119 235l420 -237l-96 -175zM82 0v1044l326 29v-1073h-326z" />
<glyph unicode="&#xed;" horiz-adv-x="489" d="M-27 1305l422 237l119 -235l-442 -177zM82 0v1044l326 29v-1073h-326z" />
<glyph unicode="&#xee;" horiz-adv-x="489" d="M-109 1286l351 248l350 -248l-107 -162l-243 146l-246 -146zM82 0v1044l326 29v-1073h-326z" />
<glyph unicode="&#xef;" horiz-adv-x="489" d="M-115 1284.5q0 63.5 43 107.5t110.5 44t112 -44t44.5 -107.5t-44.5 -109t-111.5 -45.5q-66 0 -110 45.5t-44 109zM82 0v1044l326 29v-1073h-326zM289 1284.5q0 63.5 44 107.5t111.5 44t110.5 -44t43 -107.5t-43 -109t-111 -45.5q-66 0 -110.5 45.5t-44.5 109z" />
<glyph unicode="&#xf0;" d="M33 520q0 242 112.5 371t290.5 129q115 0 189 -57q-59 98 -199 180l-203 -109l-63 121l123 66q-82 31 -148 45l133 233q176 -47 310 -123l190 101l63 -119l-126 -68q317 -254 317 -692q0 -299 -128 -461t-386 -162q-475 0 -475 545zM373 526q0 -186 36.5 -258.5 t118.5 -72.5q154 0 154 337q0 125 -23 220q-59 53 -135 53q-151 0 -151 -279z" />
<glyph unicode="&#xf1;" horiz-adv-x="1042" d="M78 0v1038l276 39q20 -53 21 -123q135 127 305 127q295 0 295 -288v-793h-326v690q0 78 -24.5 107.5t-77.5 29.5q-82 0 -144 -65v-762h-325zM131 1155q2 309 211 309q76 0 188.5 -54t137.5 -54q66 0 71 102l166 -8q-6 -313 -211 -313q-76 0 -189.5 55t-137.5 55 q-63 0 -70 -100z" />
<glyph unicode="&#xf2;" d="M33 526q0 252 132 403.5t365 151.5q229 0 360.5 -135t131.5 -401q0 -285 -134 -427.5t-364 -142.5q-227 0 -359 147.5t-132 403.5zM258 1307l119 235l420 -237l-97 -175zM379 535q0 -190 33.5 -265t115.5 -75q76 0 111 78.5t35 267.5q0 186 -35 254.5t-113 68.5 q-76 0 -111.5 -71.5t-35.5 -257.5z" />
<glyph unicode="&#xf3;" d="M33 526q0 252 132 403.5t365 151.5q229 0 360.5 -135t131.5 -401q0 -285 -134 -427.5t-364 -142.5q-227 0 -359 147.5t-132 403.5zM258 1305l422 237l119 -235l-443 -177zM379 535q0 -190 33.5 -265t115.5 -75q76 0 111 78.5t35 267.5q0 186 -35 254.5t-113 68.5 q-76 0 -111.5 -71.5t-35.5 -257.5z" />
<glyph unicode="&#xf4;" d="M33 526q0 252 132 403.5t365 151.5q229 0 360.5 -135t131.5 -401q0 -285 -134 -427.5t-364 -142.5q-227 0 -359 147.5t-132 403.5zM176 1286l350 248l351 -248l-107 -162l-244 146l-245 -146zM379 535q0 -190 33.5 -265t115.5 -75q76 0 111 78.5t35 267.5 q0 186 -35 254.5t-113 68.5q-76 0 -111.5 -71.5t-35.5 -257.5z" />
<glyph unicode="&#xf5;" d="M33 526q0 252 132 403.5t365 151.5q229 0 360.5 -135t131.5 -401q0 -285 -134 -427.5t-364 -142.5q-227 0 -359 147.5t-132 403.5zM139 1155q2 309 211 309q76 0 188.5 -54t137.5 -54q66 0 72 102l165 -8q-6 -313 -211 -313q-76 0 -189.5 55t-137.5 55q-63 0 -70 -100z M379 535q0 -190 33.5 -265t115.5 -75q76 0 111 78.5t35 267.5q0 186 -35 254.5t-113 68.5q-76 0 -111.5 -71.5t-35.5 -257.5z" />
<glyph unicode="&#xf6;" d="M33 526q0 252 132 403.5t365 151.5q229 0 360.5 -135t131.5 -401q0 -285 -134 -427.5t-364 -142.5q-227 0 -359 147.5t-132 403.5zM170 1284.5q0 63.5 43 107.5t110.5 44t111.5 -44t44 -107.5t-44 -109t-111 -45.5q-66 0 -110 45.5t-44 109zM379 535q0 -190 33.5 -265 t115.5 -75q76 0 111 78.5t35 267.5q0 186 -35 254.5t-113 68.5q-76 0 -111.5 -71.5t-35.5 -257.5zM573 1284.5q0 63.5 44.5 107.5t112 44t110.5 -44t43 -107.5t-43 -109t-111 -45.5q-66 0 -111 45.5t-45 109z" />
<glyph unicode="&#xf7;" horiz-adv-x="1087" d="M63 573v275h963v-275h-963zM350 1126q0 78 55.5 133.5t135.5 55.5t136 -55.5t56 -133.5q0 -82 -55 -137t-135 -55t-136.5 55t-56.5 137zM358 291q0 80 56.5 135t134.5 55q80 0 136 -55t56 -135t-56 -135.5t-134 -55.5q-80 0 -136.5 55.5t-56.5 135.5z" />
<glyph unicode="&#xf8;" d="M33 -88q2 4 6 9t14 22.5t21.5 34t24.5 37.5l25 39l21 33q10 15 15 24l6 8q-133 150 -133 407q0 252 132 403.5t365 151.5q111 0 205 -39l111 175l176 -76l-125 -199q125 -141 125 -397q0 -285 -134 -427.5t-364 -142.5q-106 0 -200 39l-113 -180zM350 535q0 -72 17 -117 l264 428q-35 33 -105 33q-86 0 -131 -71.5t-45 -272.5zM428 211q39 -33 100 -33q176 0 177 363q0 57 -17 94z" />
<glyph unicode="&#xf9;" horiz-adv-x="1042" d="M70 264v778l325 29v-704q0 -78 24.5 -108t78.5 -30q82 0 143 66v747l326 29v-1053l-277 -38q-20 53 -20 122q-135 -127 -305 -127q-295 0 -295 289zM250 1307l119 235l419 -237l-96 -175z" />
<glyph unicode="&#xfa;" horiz-adv-x="1042" d="M70 264v778l325 29v-704q0 -78 24.5 -108t78.5 -30q82 0 143 66v747l326 29v-1053l-277 -38q-20 53 -20 122q-135 -127 -305 -127q-295 0 -295 289zM250 1305l422 237l119 -235l-443 -177z" />
<glyph unicode="&#xfb;" horiz-adv-x="1042" d="M70 264v778l325 29v-704q0 -78 24.5 -108t78.5 -30q82 0 143 66v747l326 29v-1053l-277 -38q-20 53 -20 122q-135 -127 -305 -127q-295 0 -295 289zM168 1286l350 248l350 -248l-106 -162l-244 146l-246 -146z" />
<glyph unicode="&#xfc;" horiz-adv-x="1042" d="M70 264v778l325 29v-704q0 -78 24.5 -108t78.5 -30q82 0 143 66v747l326 29v-1053l-277 -38q-20 53 -20 122q-135 -127 -305 -127q-295 0 -295 289zM162 1284.5q0 63.5 43 107.5t110.5 44t111.5 -44t44 -107.5t-44 -109t-112 -45.5q-66 0 -109.5 45.5t-43.5 109z M565 1284.5q0 63.5 44 107.5t111.5 44t110.5 -44t43 -107.5t-43 -109t-110 -45.5q-66 0 -111 45.5t-45 109z" />
<glyph unicode="&#xfd;" horiz-adv-x="1017" d="M0 1055l338 20l102 -403q74 -309 88 -398q6 47 18.5 108.5t34 151t31.5 138.5l95 383h319l-293 -1016q-59 -211 -174 -314.5t-328 -117.5l-75 221q121 14 175 50t91 122h-78zM238 1305l421 237l119 -235l-442 -177z" />
<glyph unicode="&#xfe;" d="M78 -383v1813l303 53q23 -102 22 -246v-244q80 88 232 88q385 0 385 -538q0 -567 -428 -568q-115 0 -189 64v-377zM403 260q45 -59 123 -59q84 0 119 69.5t35 253.5q0 174 -31 242t-108 68q-84 0 -138 -70v-504z" />
<glyph unicode="&#xff;" horiz-adv-x="1017" d="M0 1055l338 20l102 -403q74 -309 88 -398q6 47 18.5 108.5t34 151t31.5 138.5l95 383h319l-293 -1016q-59 -211 -174 -314.5t-328 -117.5l-75 221q121 14 175 50t91 122h-78zM150 1284.5q0 63.5 43 107.5t110.5 44t111.5 -44t44 -107.5t-44 -109t-112 -45.5 q-66 0 -109.5 45.5t-43.5 109zM553 1284.5q0 63.5 44 107.5t111.5 44t110.5 -44t43 -107.5t-43 -109t-110 -45.5q-66 0 -111 45.5t-45 109z" />
<glyph unicode="&#x152;" horiz-adv-x="1671" d="M43 694q0 367 168 550t481 183h918l-23 -274h-471v-276h383v-267h-383v-334h520v-276h-925q-346 0 -507 167t-161 527zM403 690q0 -242 69 -329t249 -87h84v877h-84q-176 0 -247 -97.5t-71 -363.5z" />
<glyph unicode="&#x153;" horiz-adv-x="1634" d="M33 526q0 252 132 403.5t365 151.5q207 0 320 -125q109 125 303 125q236 0 341 -133t105 -411v-91h-589q4 -117 53 -174t170 -57q106 0 235 90l125 -203q-174 -127 -407 -127q-225 0 -342 129q-113 -129 -320 -129q-227 0 -359 147.5t-132 403.5zM379 535 q0 -190 33.5 -265t115.5 -75q76 0 111 78.5t35 267.5q0 186 -35 254.5t-113 68.5q-76 0 -111.5 -71.5t-35.5 -257.5zM1008 631h274q4 131 -26.5 183t-106.5 52q-68 0 -103.5 -55t-37.5 -180z" />
<glyph unicode="&#x178;" horiz-adv-x="1128" d="M-10 1427h366l211 -514l207 514h359l-404 -843v-584h-344v573zM205 1654.5q0 63.5 43 107.5t110.5 44t111.5 -44t44 -107.5t-44 -108.5t-112 -45q-66 0 -109.5 45t-43.5 108.5zM608 1654.5q0 63.5 44 107.5t111.5 44t111 -44t43.5 -107.5t-43.5 -108.5t-110.5 -45 q-66 0 -111 45t-45 108.5z" />
<glyph unicode="&#x2c6;" horiz-adv-x="819" d="M57 1286l351 248l350 -248l-107 -162l-243 146l-246 -146z" />
<glyph unicode="&#x2dc;" horiz-adv-x="819" d="M20 1155q2 309 211 309q76 0 188.5 -54t137.5 -54q66 0 72 102l166 -8q-6 -313 -211 -313q-76 0 -189.5 55t-138.5 55q-63 0 -70 -100z" />
<glyph unicode="&#x2000;" horiz-adv-x="958" />
<glyph unicode="&#x2001;" horiz-adv-x="1916" />
<glyph unicode="&#x2002;" horiz-adv-x="958" />
<glyph unicode="&#x2003;" horiz-adv-x="1916" />
<glyph unicode="&#x2004;" horiz-adv-x="638" />
<glyph unicode="&#x2005;" horiz-adv-x="479" />
<glyph unicode="&#x2006;" horiz-adv-x="319" />
<glyph unicode="&#x2007;" horiz-adv-x="319" />
<glyph unicode="&#x2008;" horiz-adv-x="239" />
<glyph unicode="&#x2009;" horiz-adv-x="382" />
<glyph unicode="&#x200a;" horiz-adv-x="106" />
<glyph unicode="&#x2010;" horiz-adv-x="679" d="M61 434v271h560v-271h-560z" />
<glyph unicode="&#x2011;" horiz-adv-x="679" d="M61 434v271h560v-271h-560z" />
<glyph unicode="&#x2012;" horiz-adv-x="679" d="M61 434v271h560v-271h-560z" />
<glyph unicode="&#x2013;" horiz-adv-x="1089" d="M66 436v254h958v-254h-958z" />
<glyph unicode="&#x2014;" horiz-adv-x="1554" d="M66 436v254h1423v-254h-1423z" />
<glyph unicode="&#x2018;" horiz-adv-x="475" d="M49 1079q0 139 85 243.5t276 129.5l30 -133q-143 -53 -143 -117q0 -20 21.5 -36.5t46 -30t46 -47t21.5 -84.5q0 -72 -51 -120t-131 -48q-90 0 -145.5 66t-55.5 177z" />
<glyph unicode="&#x2019;" horiz-adv-x="475" d="M35 969q145 51 145 116q0 20 -21.5 37t-46 30t-46 47t-21.5 85q0 72 51 120t129 48q92 0 146.5 -66.5t54.5 -179.5q0 -139 -84 -242.5t-274 -127.5z" />
<glyph unicode="&#x201a;" horiz-adv-x="475" d="M35 -145q145 51 145 116q0 20 -21.5 37t-46 30t-46 47t-21.5 85q0 72 51 120t129 48q92 0 146.5 -66.5t54.5 -179.5q0 -139 -84 -242.5t-274 -128.5z" />
<glyph unicode="&#x201c;" horiz-adv-x="946" d="M49 1079q0 139 85 243.5t276 129.5l30 -133q-143 -53 -143 -117q0 -20 21.5 -36.5t46 -30t46 -47t21.5 -84.5q0 -72 -51 -120t-131 -48q-90 0 -145.5 66t-55.5 177zM522 1079q0 141 84 244.5t275 128.5l30 -133q-143 -53 -143 -117q0 -20 21.5 -36.5t46 -30t46 -47 t21.5 -84.5q0 -72 -51 -120t-129 -48q-92 0 -146.5 66t-54.5 177z" />
<glyph unicode="&#x201d;" horiz-adv-x="946" d="M35 969q145 51 145 116q0 20 -21.5 37t-46 30t-46 47t-21.5 85q0 72 51 120t129 48q92 0 146.5 -66.5t54.5 -179.5q0 -139 -84 -242.5t-274 -127.5zM508 969q143 53 143 116q0 20 -21.5 37t-46 30t-46 47t-21.5 85q0 72 51 120t131 48q90 0 145.5 -66.5t55.5 -179.5 q0 -139 -85 -242.5t-275 -127.5z" />
<glyph unicode="&#x201e;" horiz-adv-x="946" d="M35 -145q145 51 145 116q0 20 -21.5 37t-46 30t-46 47t-21.5 85q0 72 51 120t129 48q92 0 146.5 -66.5t54.5 -179.5q0 -139 -84 -242.5t-274 -128.5zM508 -145q143 53 143 116q0 20 -21.5 37t-46 30t-46 47t-21.5 85q0 72 51 120t131 48q90 0 145.5 -66.5t55.5 -179.5 q0 -139 -85 -242.5t-275 -128.5z" />
<glyph unicode="&#x2022;" horiz-adv-x="901" d="M106 725q0 141 99.5 241.5t243 100.5t244 -100.5t100.5 -241.5q0 -143 -100.5 -243.5t-244 -100.5t-243 100.5t-99.5 243.5z" />
<glyph unicode="&#x2026;" horiz-adv-x="1339" d="M39 154q0 78 53 131t131 53t129 -53.5t51 -132.5q0 -78 -53 -129.5t-133 -51.5q-78 0 -128 51.5t-50 131.5zM485 154q0 78 53.5 131t131.5 53t129 -53.5t51 -132.5q0 -78 -53.5 -129.5t-131 -51.5t-129 51.5t-51.5 131.5zM932 154q0 78 53 131t131 53t129 -53.5 t51 -132.5q0 -78 -53 -129.5t-131 -51.5t-129 51.5t-51 131.5z" />
<glyph unicode="&#x202f;" horiz-adv-x="382" />
<glyph unicode="&#x2039;" horiz-adv-x="616" d="M33 516l329 483l222 -129l-207 -354l207 -354l-222 -129z" />
<glyph unicode="&#x203a;" horiz-adv-x="616" d="M33 162l209 354l-209 354l221 129l330 -483l-330 -483z" />
<glyph unicode="&#x205f;" horiz-adv-x="479" />
<glyph unicode="&#x20ac;" horiz-adv-x="1179" d="M31 457v192h2h2h2h2h2h2h2h2h2h2h2h2h2h2h2h2h3h4h2h2h2h4h2h4h2h2h4h2h4h2h4h5h2h4h2h4h4h4h2h4h4h4h2h19v60q0 43 2 63h-137v191h155q92 487 586 487q240 0 416 -125l-117 -242q-131 100 -276 101q-106 0 -167 -52.5t-87 -168.5h358v-191h-379v-51q0 -49 2 -72h377 v-192h-358q27 -117 86 -166t168 -49q137 0 276 98l117 -242q-172 -123 -418 -123q-250 0 -394.5 119t-189.5 363h-155z" />
<glyph unicode="&#x2122;" horiz-adv-x="1478" d="M31 1241v186h547l-13 -186h-157v-528h-213v528h-164zM594 713l53 714h266l58 -249q25 -119 35 -207q12 84 38 207l62 249h262l55 -714h-194l-17 286q-12 178 -12 211q-16 -121 -35 -202l-57 -295h-211l-57 295q-25 123 -37 202q0 -45 -6 -211l-15 -286h-188z" />
<glyph unicode="&#xe000;" horiz-adv-x="1070" d="M0 1070h1070v-1070h-1070v1070z" />
<glyph unicode="&#xfb01;" horiz-adv-x="1069" d="M20 836v221h97v125q0 168 75.5 244.5t229.5 76.5q123 0 209 -41l-51 -217q-29 18 -72 19q-68 0 -68 -95v-112h547v-1057h-325v836h-218v-836h-323v836h-101zM651 1337.5q0 69.5 50.5 117.5t124 48t121.5 -48t48 -117.5t-51 -118t-125 -48.5q-72 0 -120 48.5t-48 118z" />
<glyph unicode="&#xfb02;" horiz-adv-x="1103" d="M20 836v221h97v125q0 168 75.5 244.5t229.5 76.5q123 0 209 -41l-51 -217q-29 18 -72 19q-68 0 -68 -95v-112h144l-2 -221h-138v-836h-323v836h-101zM664 283v1147l303 53q20 -96 20 -246v-901q0 -80 12.5 -103.5t44.5 -23.5q8 0 29 4l23 -209q-72 -29 -164 -29 q-162 0 -215 76t-53 232z" />
<glyph unicode="&#xfb03;" horiz-adv-x="1609" d="M20 836v221h97v125q0 170 75.5 245.5t235.5 75.5q121 0 213 -41l-51 -217q-33 18 -76 19q-74 0 -74 -97v-110h222v125q0 168 75.5 244.5t227.5 76.5q121 0 206 -41l-49 -217q-29 18 -73 19q-61 0 -62 -95v-112h543v-1057h-326v836h-217v-836h-325v836h-218v-836h-323v836 h-101zM1192 1337.5q0 69.5 51 117.5t125 48t122 -48t48 -117.5t-51 -118t-127 -48.5q-72 0 -120 48.5t-48 118z" />
<glyph unicode="&#xfb04;" horiz-adv-x="1646" d="M20 836v221h97v125q0 170 75.5 245.5t235.5 75.5q121 0 213 -41l-51 -217q-33 18 -76 19q-74 0 -74 -97v-110h222v125q0 168 75.5 244.5t227.5 76.5q121 0 206 -41l-49 -217q-29 18 -73 19q-61 0 -62 -95v-112h139l-2 -221h-137v-836h-325v836h-218v-836h-323v836h-101z M1204 283v1147l305 53q20 -96 21 -246v-901q0 -80 12 -103.5t43 -23.5q12 0 29 4l24 -209q-72 -29 -163 -29q-164 0 -217.5 75t-53.5 233z" />
</font>
</defs>
</svg>
